<?xml version="1.0" encoding="UTF-8"?>
<svg xmlns="http://www.w3.org/2000/svg"><g style="fill: #000000;fill-opacity: 1;" id="p3_s2562" idClipZone="p3_c0"><path d="M47.4078,655.211 L286.511,655.211 L286.511,654.713 L47.4078,654.713 L47.4078,655.211 Z"/></g><g style="fill: #000000;fill-opacity: 1;" id="p3_s2582" idClipZone="p3_c0"><path d="M47.4078,681.611 L286.511,681.611 L286.511,681.113 L47.4078,681.113 L47.4078,681.611 Z"/></g><g style="fill: #000000;fill-opacity: 1;" id="p3_s2623" idClipZone="p3_c0"><path d="M47.4078,737.891 L286.511,737.891 L286.511,737.393 L47.4078,737.393 L47.4078,737.891 Z"/></g><g style="stroke: #000000;fill:none;stroke-width: 0.653;stroke-linejoin:round;stroke-linecap:round;stroke-miterlimit: 10;" id="p3_s2624" idClipZone="p3_c0"><path d="M326.953,340.084 L547.058,340.084 L547.058,284.768 L326.953,284.768 L326.953,340.084 L326.953,335.852"/><path d="M337.96,340.084 L337.96,337.983"/><path d="M348.966,340.084 L348.966,337.983"/><path d="M359.973,340.084 L359.973,337.983"/><path d="M370.98,340.084 L370.98,337.983"/><path d="M381.987,340.084 L381.987,335.852"/><path d="M392.994,340.084 L392.994,337.983"/><path d="M404.001,340.084 L404.001,337.983"/><path d="M415.007,340.084 L415.007,337.983"/><path d="M426.014,340.084 L426.014,337.983"/><path d="M436.99,340.084 L436.99,335.852"/><path d="M447.997,340.084 L447.997,337.983"/><path d="M459.004,340.084 L459.004,337.983"/><path d="M470.009,340.084 L470.009,337.983"/><path d="M481.017,340.084 L481.017,337.983"/><path d="M492.023,340.084 L492.023,335.852"/><path d="M503.031,340.084 L503.031,337.983"/><path d="M514.038,340.084 L514.038,337.983"/><path d="M525.044,340.084 L525.044,337.983"/><path d="M536.051,340.084 L536.051,337.983"/><path d="M547.058,340.084 L547.058,335.852"/><path d="M326.953,289.002 L326.953,284.768"/><path d="M337.96,286.9 L337.96,284.768"/><path d="M348.966,286.9 L348.966,284.768"/><path d="M359.973,286.9 L359.973,284.768"/><path d="M370.98,286.9 L370.98,284.768"/><path d="M381.987,289.002 L381.987,284.768"/><path d="M392.994,286.9 L392.994,284.768"/><path d="M404.001,286.9 L404.001,284.768"/><path d="M415.007,286.9 L415.007,284.768"/><path d="M426.014,286.9 L426.014,284.768"/><path d="M436.99,289.002 L436.99,284.768"/><path d="M447.997,286.9 L447.997,284.768"/><path d="M459.004,286.9 L459.004,284.768"/><path d="M470.009,286.9 L470.009,284.768"/><path d="M481.017,286.9 L481.017,284.768"/><path d="M492.023,289.002 L492.023,284.768"/><path d="M503.031,286.9 L503.031,284.768"/><path d="M514.038,286.9 L514.038,284.768"/><path d="M525.044,286.9 L525.044,284.768"/><path d="M536.051,286.9 L536.051,284.768"/><path d="M547.058,289.002 L547.058,284.768"/><path d="M326.671,345.164 L325.824,345.447 L325.259,346.293 L324.977,347.705 L324.977,348.551 L325.259,349.962 L325.824,350.809 L326.671,351.092 L327.235,351.092 L328.082,350.809 L328.646,349.962 L328.928,348.551 L328.928,347.705 L328.646,346.293 L328.082,345.447 L327.235,345.164 L326.671,345.164"/><path d="M377.471,345.164 L376.625,345.447 L376.06,346.293 L375.778,347.705 L375.778,348.551 L376.06,349.962 L376.625,350.809 L377.471,351.092 L378.036,351.092 L378.882,350.809 L379.447,349.962 L379.729,348.551 L379.729,347.705 L379.447,346.293 L378.882,345.447 L378.036,345.164 L377.471,345.164"/><path d="M381.987,350.527 L381.705,350.809 L381.987,351.092 L382.269,350.809 L381.987,350.527"/><path d="M387.631,345.164 L384.809,345.164 L384.527,347.705 L384.809,347.423 L385.656,347.141 L386.503,347.141 L387.349,347.423 L387.914,347.987 L388.196,348.834 L388.196,349.398 L387.914,350.244 L387.349,350.809 L386.503,351.092 L385.656,351.092 L384.809,350.809 L384.527,350.527 L384.245,349.962"/><path d="M435.861,346.293 L436.425,346.011 L437.272,345.164 L437.272,351.092"/><path d="M486.662,346.293 L487.226,346.011 L488.073,345.164 L488.073,351.092"/><path d="M492.023,350.527 L491.742,350.809 L492.023,351.092 L492.306,350.809 L492.023,350.527"/><path d="M497.668,345.164 L494.846,345.164 L494.564,347.705 L494.846,347.423 L495.693,347.141 L496.54,347.141 L497.386,347.423 L497.951,347.987 L498.232,348.834 L498.232,349.398 L497.951,350.244 L497.386,350.809 L496.54,351.092 L495.693,351.092 L494.846,350.809 L494.564,350.527 L494.281,349.962"/><path d="M545.365,346.576 L545.365,346.293 L545.646,345.729 L545.929,345.447 L546.494,345.164 L547.623,345.164 L548.187,345.447 L548.469,345.729 L548.751,346.293 L548.751,346.857 L548.469,347.423 L547.905,348.27 L545.082,351.092 L549.033,351.092"/><path d="M326.953,337.701 L329.054,337.701"/><path d="M326.953,333.719 L329.054,333.719"/><path d="M326.953,329.705 L329.054,329.705"/><path d="M326.953,325.691 L331.186,325.691"/><path d="M326.953,321.678 L329.054,321.678"/><path d="M326.953,317.695 L329.054,317.695"/><path d="M326.953,313.68 L329.054,313.68"/><path d="M326.953,309.666 L329.054,309.666"/><path d="M326.953,305.652 L331.186,305.652"/><path d="M326.953,301.67 L329.054,301.67"/><path d="M326.953,297.656 L329.054,297.656"/><path d="M326.953,293.643 L329.054,293.643"/><path d="M326.953,289.629 L329.054,289.629"/><path d="M326.953,285.647 L331.186,285.647"/><path d="M544.957,337.701 L547.058,337.701"/><path d="M544.957,333.719 L547.058,333.719"/><path d="M544.957,329.705 L547.058,329.705"/><path d="M542.824,325.691 L547.058,325.691"/><path d="M544.957,321.678 L547.058,321.678"/><path d="M544.957,317.695 L547.058,317.695"/><path d="M544.957,313.68 L547.058,313.68"/><path d="M544.957,309.666 L547.058,309.666"/><path d="M542.824,305.652 L547.058,305.652"/><path d="M544.957,301.67 L547.058,301.67"/><path d="M544.957,297.656 L547.058,297.656"/><path d="M544.957,293.643 L547.058,293.643"/><path d="M544.957,289.629 L547.058,289.629"/><path d="M542.824,285.647 L547.058,285.647"/><path d="M319.113,322.524 L316.291,322.524 L316.009,325.064 L316.291,324.781 L317.137,324.5 L317.984,324.5 L318.831,324.781 L319.395,325.346 L319.678,326.194 L319.678,326.757 L319.395,327.604 L318.831,328.168 L317.984,328.451 L317.137,328.451 L316.291,328.168 L316.009,327.887 L315.727,327.322"/><path d="M319.395,303.332 L319.113,302.768 L318.267,302.486 L317.702,302.486 L316.855,302.768 L316.291,303.614 L316.009,305.026 L316.009,306.438 L316.291,307.565 L316.855,308.131 L317.702,308.412 L317.984,308.412 L318.831,308.131 L319.395,307.565 L319.678,306.719 L319.678,306.438 L319.395,305.591 L318.831,305.026 L317.984,304.744 L317.702,304.744 L316.855,305.026 L316.291,305.591 L316.009,306.438"/><path d="M319.678,282.447 L316.855,288.375"/><path d="M315.727,282.447 L319.678,282.447"/><path d="M424.885,363.509 L424.885,369.437"/><path d="M424.885,363.509 L427.425,363.509 L428.272,363.791 L428.554,364.074 L428.836,364.639 L428.836,365.485 L428.554,366.049 L428.272,366.332 L427.425,366.613 L424.885,366.613"/><path d="M430.78,363.509 L430.78,369.437"/><path d="M430.78,366.613 L431.627,365.768 L432.192,365.485 L433.039,365.485 L433.603,365.768 L433.884,366.613 L433.884,369.437"/><path d="M439.248,365.485 L439.248,369.437"/><path d="M439.248,366.332 L438.683,365.768 L438.119,365.485 L437.272,365.485 L436.708,365.768 L436.144,366.332 L435.861,367.178 L435.861,367.742 L436.144,368.59 L436.708,369.153 L437.272,369.437 L438.119,369.437 L438.683,369.153 L439.248,368.59"/><path d="M444.328,366.332 L444.046,365.768 L443.199,365.485 L442.351,365.485 L441.505,365.768 L441.223,366.332 L441.505,366.897 L442.07,367.178 L443.48,367.46 L444.046,367.742 L444.328,368.307 L444.328,368.59 L444.046,369.153 L443.199,369.437 L442.351,369.437 L441.505,369.153 L441.223,368.59"/><path d="M446.021,367.178 L449.408,367.178 L449.408,366.613 L449.125,366.049 L448.843,365.768 L448.279,365.485 L447.431,365.485 L446.867,365.768 L446.302,366.332 L446.021,367.178 L446.021,367.742 L446.302,368.59 L446.867,369.153 L447.431,369.437 L448.279,369.437 L448.843,369.153 L449.408,368.59"/><path d="M326.953,335.35 L326.953,321.145"/><path d="M332.44,329.454 L332.44,315.154"/><path d="M337.96,323.527 L337.96,309.134"/><path d="M343.447,299.538 L343.447,284.768"/><path d="M348.966,310.858 L348.966,296.246"/><path d="M354.454,300.981 L354.454,286.273"/><path d="M359.973,310.953 L359.973,296.371"/><path d="M365.461,328.231 L365.461,313.9"/><path d="M370.98,340.084 L370.98,325.941"/><path d="M376.468,317.852 L376.468,303.363"/><path d="M381.987,327.416 L381.987,313.054"/><path d="M387.475,322.305 L387.475,307.88"/><path d="M392.994,326.695 L392.994,312.332"/><path d="M398.482,314.434 L398.482,299.852"/><path d="M404.001,307.975 L404.001,293.329"/><path d="M409.488,329.141 L409.488,314.841"/><path d="M415.007,319.043 L415.007,304.587"/><path d="M420.495,323.119 L420.495,308.727"/><path d="M426.014,332.34 L426.014,318.071"/><path d="M431.502,330.301 L431.502,316.032"/><path d="M436.99,335.35 L436.99,321.145"/><path d="M442.509,329.454 L442.509,315.154"/><path d="M447.997,323.527 L447.997,309.134"/><path d="M453.515,299.538 L453.515,284.768"/><path d="M459.004,310.858 L459.004,296.246"/></g><g style="stroke: #000000;fill:none;stroke-width: 0.653;stroke-linejoin:round;stroke-linecap:round;stroke-miterlimit: 10;" id="p3_s2625" idClipZone="p3_c0"><path d="M464.523,300.981 L464.523,286.273"/><path d="M470.009,310.953 L470.009,296.371"/><path d="M475.529,328.231 L475.529,313.9"/><path d="M481.017,340.084 L481.017,325.941"/><path d="M486.537,317.852 L486.537,303.363"/><path d="M492.023,327.416 L492.023,313.054"/><path d="M497.543,322.305 L497.543,307.88"/><path d="M503.031,326.695 L503.031,312.332"/><path d="M508.549,314.434 L508.549,299.852"/><path d="M514.038,307.975 L514.038,293.329"/><path d="M519.556,329.141 L519.556,314.841"/><path d="M525.044,319.043 L525.044,304.587"/><path d="M530.563,323.119 L530.563,308.727"/><path d="M536.051,332.34 L536.051,318.071"/><path d="M541.57,330.301 L541.57,316.032"/><path d="M326.953,328.231 L329.712,328.231 L329.712,322.305 L335.2,322.305 L335.2,316.346 L340.719,316.346 L340.719,292.169 L346.207,292.169 L346.207,303.552 L351.726,303.552 L351.726,293.643 L357.214,293.643 L357.214,303.678 L362.733,303.678 L362.733,321.05 L368.221,321.05 L368.221,332.997 L373.709,332.997 L373.709,310.607 L379.227,310.607 L379.227,320.234 L384.715,320.234 L384.715,315.092 L390.234,315.092 L390.234,319.514 L395.722,319.514 L395.722,307.127 L401.24,307.127 L401.24,300.667 L406.728,300.667 L406.728,321.99 L412.247,321.99 L412.247,311.83 L417.735,311.83 L417.735,315.906 L423.254,315.906 L423.254,325.221 L428.742,325.221 L428.742,323.15 L434.261,323.15 L434.261,328.231 L439.749,328.231 L439.749,322.305 L445.268,322.305 L445.268,316.346 L450.755,316.346 L450.755,292.169 L456.274,292.169 L456.274,303.552 L461.762,303.552 L461.762,293.643 L467.281,293.643 L467.281,303.678 L472.769,303.678 L472.769,321.05"/><path d="M472.769,321.051 L478.289,321.051 L478.289,332.997 L483.775,332.997 L483.775,310.607 L489.294,310.607 L489.294,320.234"/><path d="M489.294,320.235 L494.783,320.235 L494.783,315.092 L500.271,315.092 L500.271,319.514 L505.79,319.514 L505.79,307.127 L511.277,307.127 L511.277,300.667 L516.797,300.667 L516.797,321.991 L522.285,321.991 L522.285,311.832 L527.803,311.832 L527.803,315.908 L533.291,315.908 L533.291,325.221 L538.81,325.221 L538.81,323.15 L544.298,323.15"/><path d="M326.953,284.768 L547.058,284.768 L547.058,229.452 L326.953,229.452 L326.953,284.768 L326.953,280.535"/><path d="M337.96,284.768 L337.96,282.667"/><path d="M348.966,284.768 L348.966,282.667"/><path d="M359.973,284.768 L359.973,282.667"/><path d="M370.98,284.768 L370.98,282.667"/><path d="M381.987,284.768 L381.987,280.535"/></g><g style="stroke: #000000;fill:none;stroke-width: 0.653;stroke-linejoin:round;stroke-linecap:round;stroke-miterlimit: 10;" id="p3_s2626" idClipZone="p3_c0"><path d="M392.994,284.768 L392.994,282.667"/><path d="M404.001,284.768 L404.001,282.667"/><path d="M415.007,284.768 L415.007,282.667"/></g><g style="stroke: #000000;fill:none;stroke-width: 0.653;stroke-linejoin:round;stroke-linecap:round;stroke-miterlimit: 10;" id="p3_s2627" idClipZone="p3_c0"><path d="M426.014,284.768 L426.014,282.667"/><path d="M436.99,284.768 L436.99,280.535"/><path d="M447.997,284.768 L447.997,282.667"/><path d="M459.004,284.768 L459.004,282.667"/><path d="M470.009,284.768 L470.009,282.667"/><path d="M481.017,284.768 L481.017,282.667"/><path d="M492.023,284.768 L492.023,280.535"/><path d="M503.031,284.768 L503.031,282.667"/><path d="M514.038,284.768 L514.038,282.667"/><path d="M525.044,284.768 L525.044,282.667"/><path d="M536.051,284.768 L536.051,282.667"/><path d="M547.058,284.768 L547.058,280.535"/><path d="M326.953,233.685 L326.953,229.452"/><path d="M337.96,231.585 L337.96,229.452"/><path d="M348.966,231.585 L348.966,229.452"/><path d="M359.973,231.585 L359.973,229.452"/><path d="M370.98,231.585 L370.98,229.452"/><path d="M381.987,233.685 L381.987,229.452"/><path d="M392.994,231.585 L392.994,229.452"/><path d="M404.001,231.585 L404.001,229.452"/><path d="M415.007,231.585 L415.007,229.452"/><path d="M426.014,231.585 L426.014,229.452"/><path d="M436.99,233.685 L436.99,229.452"/><path d="M447.997,231.585 L447.997,229.452"/><path d="M459.004,231.585 L459.004,229.452"/><path d="M470.009,231.585 L470.009,229.452"/><path d="M481.017,231.585 L481.017,229.452"/><path d="M492.023,233.685 L492.023,229.452"/><path d="M503.031,231.585 L503.031,229.452"/><path d="M514.038,231.585 L514.038,229.452"/><path d="M525.044,231.585 L525.044,229.452"/><path d="M536.051,231.585 L536.051,229.452"/><path d="M547.058,233.685 L547.058,229.452"/><path d="M326.953,282.197 L329.054,282.197"/><path d="M326.953,278.591 L329.054,278.591"/><path d="M326.953,274.984 L329.054,274.984"/><path d="M326.953,271.378 L329.054,271.378"/><path d="M326.953,267.772 L331.186,267.772"/><path d="M326.953,264.166 L329.054,264.166"/><path d="M326.953,260.559 L329.054,260.559"/><path d="M326.953,256.953 L329.054,256.953"/><path d="M326.953,253.315 L329.054,253.315"/><path d="M326.953,249.709 L331.186,249.709"/><path d="M326.953,246.104 L329.054,246.104"/><path d="M326.953,242.497 L329.054,242.497"/><path d="M326.953,238.891 L329.054,238.891"/><path d="M326.953,235.284 L329.054,235.284"/><path d="M326.953,231.679 L331.186,231.679"/><path d="M544.957,282.197 L547.058,282.197"/><path d="M544.957,278.591 L547.058,278.591"/><path d="M544.957,274.984 L547.058,274.984"/><path d="M544.957,271.378 L547.058,271.378"/><path d="M542.824,267.772 L547.058,267.772"/><path d="M544.957,264.166 L547.058,264.166"/><path d="M544.957,260.559 L547.058,260.559"/><path d="M544.957,256.953 L547.058,256.953"/><path d="M544.957,253.315 L547.058,253.315"/><path d="M542.824,249.709 L547.058,249.709"/><path d="M544.957,246.104 L547.058,246.104"/><path d="M544.957,242.497 L547.058,242.497"/><path d="M544.957,238.891 L547.058,238.891"/><path d="M544.957,235.284 L547.058,235.284"/><path d="M542.824,231.679 L547.058,231.679"/><path d="M319.678,264.606 L316.855,270.531"/></g><g style="stroke: #000000;fill:none;stroke-width: 0.653;stroke-linejoin:round;stroke-linecap:round;stroke-miterlimit: 10;" id="p3_s2628" idClipZone="p3_c0"><path d="M315.727,264.606 L319.678,264.606"/><path d="M317.137,246.543 L316.291,246.824 L316.009,247.389 L316.009,247.953 L316.291,248.518 L316.855,248.8 L317.984,249.082 L318.831,249.363 L319.395,249.93 L319.678,250.494 L319.678,251.34 L319.395,251.904 L319.113,252.187 L318.266,252.469 L317.137,252.469 L316.291,252.187 L316.009,251.904 L315.727,251.34 L315.727,250.494 L316.009,249.93 L316.573,249.363 L317.419,249.082 L318.548,248.8 L319.113,248.518 L319.395,247.953 L319.395,247.389 L319.113,246.824 L318.266,246.543 L317.137,246.543"/><path d="M319.395,230.487 L319.113,231.334 L318.549,231.898 L317.702,232.18 L317.419,232.18 L316.573,231.898 L316.009,231.334 L315.727,230.487 L315.727,230.205 L316.009,229.358 L316.573,228.794 L317.419,228.511 L317.702,228.511 L318.549,228.794 L319.113,229.358 L319.395,230.487 L319.395,231.898 L319.113,233.31 L318.549,234.156 L317.702,234.438 L317.137,234.438 L316.291,234.156 L316.009,233.591"/><path d="M326.953,249.865 L326.953,244.348"/><path d="M332.44,235.222 L332.44,229.452"/><path d="M337.96,236.728 L337.96,231.051"/><path d="M343.447,246.762 L343.447,241.211"/><path d="M348.966,257.298 L348.966,251.904"/><path d="M354.454,265.797 L354.454,260.465"/><path d="M359.973,265.357 L359.973,260.059"/><path d="M365.461,262.284 L365.461,256.891"/><path d="M370.98,258.301 L370.98,252.908"/><path d="M376.468,246.166 L376.468,240.584"/><path d="M381.987,244.379 L381.987,238.734"/><path d="M387.475,253.284 L387.475,247.859"/><path d="M392.994,267.709 L392.994,262.41"/><path d="M398.482,278.027 L398.482,272.883"/><path d="M404.001,280.911 L404.001,275.768"/><path d="M409.488,278.496 L409.488,273.385"/><path d="M415.007,284.768 L415.007,279.75"/><path d="M420.495,282.479 L420.495,277.431"/><path d="M426.014,275.957 L426.014,270.783"/><path d="M431.502,259.838 L431.502,254.444"/><path d="M436.99,249.865 L436.99,244.348"/><path d="M442.509,235.222 L442.509,229.452"/><path d="M447.997,236.728 L447.997,231.051"/><path d="M453.515,246.762 L453.515,241.211"/><path d="M459.004,257.298 L459.004,251.904"/><path d="M464.523,265.797 L464.523,260.465"/><path d="M470.009,265.357 L470.009,260.059"/><path d="M475.529,262.284 L475.529,256.891"/><path d="M481.017,258.301 L481.017,252.908"/><path d="M486.537,246.166 L486.537,240.584"/><path d="M492.023,244.379 L492.023,238.734"/><path d="M497.543,253.284 L497.543,247.859"/><path d="M503.031,267.709 L503.031,262.41"/><path d="M508.549,278.027 L508.549,272.883"/><path d="M514.038,280.911 L514.038,275.768"/><path d="M519.556,278.496 L519.556,273.385"/><path d="M525.044,284.768 L525.044,279.75"/></g><g style="stroke: #000000;fill:none;stroke-width: 0.653;stroke-linejoin:round;stroke-linecap:round;stroke-miterlimit: 10;" id="p3_s2629" idClipZone="p3_c0"><path d="M530.563,282.479 L530.563,277.431"/><path d="M536.051,275.957 L536.051,270.783"/><path d="M541.57,259.838 L541.57,254.444"/><path d="M326.953,247.107 L329.712,247.107 L329.712,232.337 L335.2,232.337 L335.2,233.874 L340.719,233.874 L340.719,243.971 L346.207,243.971 L346.207,254.602 L351.726,254.602 L351.726,263.131 L357.214,263.131 L357.214,262.692 L362.733,262.692 L362.733,259.588 L368.221,259.588 L368.221,255.606 L373.709,255.606 L373.709,243.375 L379.227,243.375 L379.227,241.557 L384.715,241.557 L384.715,250.557 L390.234,250.557 L390.234,265.043 L395.722,265.043 L395.722,275.455 L401.24,275.455 L401.24,278.34 L406.728,278.34 L406.728,275.926 L412.247,275.926 L412.247,282.26 L417.735,282.26 L417.735,279.971 L423.254,279.971 L423.254,273.385 L428.742,273.385 L428.742,257.142 L434.261,257.142 L434.261,247.107 L439.749,247.107 L439.749,232.337 L445.268,232.337 L445.268,233.874 L450.755,233.874 L450.755,243.971 L456.274,243.971 L456.274,254.602 L461.762,254.602 L461.762,263.131 L467.281,263.131 L467.281,262.692 L472.769,262.692 L472.769,259.588 L478.289,259.588 L478.289,255.606 L483.775,255.606 L483.775,243.375 L489.294,243.375 L489.294,241.557 L494.783,241.557 L494.783,250.557 L500.271,250.557 L500.271,265.045 L505.79,265.045 L505.79,275.455 L511.277,275.455 L511.277,278.34 L516.797,278.34 L516.797,275.926 L522.285,275.926 L522.285,282.26 L527.803,282.26 L527.803,279.971 L533.291,279.971 L533.291,273.386 L538.81,273.386 L538.81,257.142 L544.298,257.142"/><path d="M326.953,229.452 L547.058,229.452 L547.058,174.167 L326.953,174.167 L326.953,229.452 L326.953,225.25"/><path d="M337.96,229.452 L337.96,227.351"/><path d="M348.966,229.452 L348.966,227.351"/><path d="M359.973,229.452 L359.973,227.351"/><path d="M370.98,229.452 L370.98,227.351"/><path d="M381.987,229.452 L381.987,225.25"/><path d="M392.994,229.452 L392.994,227.351"/><path d="M404.001,229.452 L404.001,227.351"/><path d="M415.007,229.452 L415.007,227.351"/><path d="M426.014,229.452 L426.014,227.351"/><path d="M436.99,229.452 L436.99,225.25"/><path d="M447.997,229.452 L447.997,227.351"/><path d="M459.004,229.452 L459.004,227.351"/><path d="M470.009,229.452 L470.009,227.351"/><path d="M481.017,229.452 L481.017,227.351"/><path d="M492.023,229.452 L492.023,225.25"/><path d="M503.031,229.452 L503.031,227.351"/><path d="M514.038,229.452 L514.038,227.351"/><path d="M525.044,229.452 L525.044,227.351"/><path d="M536.051,229.452 L536.051,227.351"/><path d="M547.058,229.452 L547.058,225.25"/><path d="M326.953,178.4 L326.953,174.167"/><path d="M337.96,176.268 L337.96,174.167"/><path d="M348.966,176.268 L348.966,174.167"/><path d="M359.973,176.268 L359.973,174.167"/><path d="M370.98,176.268 L370.98,174.167"/><path d="M381.987,178.4 L381.987,174.167"/><path d="M392.994,176.268 L392.994,174.167"/><path d="M404.001,176.268 L404.001,174.167"/><path d="M415.007,176.268 L415.007,174.167"/><path d="M426.014,176.268 L426.014,174.167"/><path d="M436.99,178.4 L436.99,174.167"/><path d="M447.997,176.268 L447.997,174.167"/><path d="M459.004,176.268 L459.004,174.167"/><path d="M470.009,176.268 L470.009,174.167"/><path d="M481.017,176.268 L481.017,174.167"/><path d="M492.023,178.4 L492.023,174.167"/><path d="M503.031,176.268 L503.031,174.167"/><path d="M514.038,176.268 L514.038,174.167"/><path d="M525.044,176.268 L525.044,174.167"/><path d="M536.051,176.268 L536.051,174.167"/><path d="M547.058,178.4 L547.058,174.167"/><path d="M326.953,227.445 L329.054,227.445"/><path d="M326.953,225.219 L329.054,225.219"/><path d="M326.953,223.023 L329.054,223.023"/></g><g style="stroke: #000000;fill:none;stroke-width: 0.653;stroke-linejoin:round;stroke-linecap:round;stroke-miterlimit: 10;" id="p3_s2630" idClipZone="p3_c0"><path d="M326.953,220.797 L329.054,220.797"/><path d="M326.953,218.57 L331.186,218.57"/><path d="M326.953,216.376 L329.054,216.376"/><path d="M326.953,214.149 L329.054,214.149"/><path d="M326.953,211.922 L329.054,211.922"/><path d="M326.953,209.728 L329.054,209.728"/><path d="M326.953,207.501 L331.186,207.501"/><path d="M326.953,205.275 L329.054,205.275"/><path d="M326.953,203.048 L329.054,203.048"/><path d="M326.953,200.853 L329.054,200.853"/><path d="M326.953,198.627 L329.054,198.627"/><path d="M326.953,196.4 L331.186,196.4"/><path d="M326.953,194.205 L329.054,194.205"/><path d="M326.953,191.979 L329.054,191.979"/><path d="M326.953,189.752 L329.054,189.752"/><path d="M326.953,187.557 L329.054,187.557"/><path d="M326.953,185.331 L331.186,185.331"/><path d="M326.953,183.104 L329.054,183.104"/><path d="M326.953,180.909 L329.054,180.909"/><path d="M326.953,178.683 L329.054,178.683"/><path d="M326.953,176.456 L329.054,176.456"/><path d="M326.953,174.23 L331.186,174.23"/><path d="M544.957,227.445 L547.058,227.445"/><path d="M544.957,225.219 L547.058,225.219"/><path d="M544.957,223.023 L547.058,223.023"/><path d="M544.957,220.797 L547.058,220.797"/><path d="M542.824,218.57 L547.058,218.57"/><path d="M544.957,216.376 L547.058,216.376"/><path d="M544.957,214.149 L547.058,214.149"/><path d="M544.957,211.922 L547.058,211.922"/><path d="M544.957,209.728 L547.058,209.728"/><path d="M542.824,207.501 L547.058,207.501"/><path d="M544.957,205.275 L547.058,205.275"/><path d="M544.957,203.048 L547.058,203.048"/><path d="M544.957,200.853 L547.058,200.853"/><path d="M544.957,198.627 L547.058,198.627"/><path d="M542.824,196.4 L547.058,196.4"/><path d="M544.957,194.205 L547.058,194.205"/><path d="M544.957,191.979 L547.058,191.979"/><path d="M544.957,189.752 L547.058,189.752"/><path d="M544.957,187.557 L547.058,187.557"/><path d="M542.824,185.331 L547.058,185.331"/><path d="M544.957,183.104 L547.058,183.104"/><path d="M544.957,180.909 L547.058,180.909"/><path d="M544.957,178.683 L547.058,178.683"/><path d="M544.957,176.456 L547.058,176.456"/><path d="M542.824,174.23 L547.058,174.23"/><path d="M319.678,215.403 L316.855,221.33"/><path d="M315.727,215.403 L319.678,215.403"/><path d="M317.137,204.334 L316.291,204.616 L316.009,205.18 L316.009,205.745 L316.291,206.31 L316.855,206.592 L317.984,206.874 L318.831,207.156 L319.395,207.721 L319.678,208.285 L319.678,209.132 L319.395,209.696 L319.113,209.979 L318.266,210.261 L317.137,210.261 L316.291,209.979 L316.009,209.696 L315.727,209.132 L315.727,208.285 L316.009,207.721 L316.573,207.156 L317.419,206.874 L318.548,206.592 L319.113,206.31 L319.395,205.745 L319.395,205.18 L319.113,204.616 L318.266,204.334 L317.137,204.334"/><path d="M319.395,195.209 L319.113,196.055 L318.549,196.62 L317.702,196.902 L317.419,196.902 L316.573,196.62 L316.009,196.055 L315.727,195.209 L315.727,194.926 L316.009,194.08 L316.573,193.515 L317.419,193.233 L317.702,193.233 L318.549,193.515 L319.113,194.08 L319.395,195.209 L319.395,196.62 L319.113,198.031 L318.549,198.877 L317.702,199.16 L317.137,199.16 L316.291,198.877 L316.009,198.313"/><path d="M310.929,183.293 L311.493,183.01 L312.34,182.163 L312.34,188.09"/><path d="M317.42,182.163 L316.573,182.446 L316.009,183.293 L315.727,184.704 L315.727,185.55 L316.009,186.961 L316.573,187.808 L317.419,188.09 L317.984,188.09 L318.831,187.808 L319.395,186.961 L319.678,185.55 L319.678,184.704 L319.395,183.293 L318.831,182.446 L317.984,182.163 L317.419,182.163"/><path d="M310.929,172.191 L311.493,171.909 L312.34,171.063 L312.34,176.989"/><path d="M316.573,172.191 L317.137,171.909 L317.984,171.063 L317.984,176.989"/><path d="M326.953,203.707 L326.953,191.257"/><path d="M332.44,213.491 L332.44,201.261"/><path d="M337.96,214.18 L337.96,201.95"/><path d="M343.447,196.462 L343.447,183.888"/><path d="M348.966,195.616 L348.966,183.01"/><path d="M354.454,196.306 L354.454,183.731"/><path d="M359.973,215.184 L359.973,202.985"/><path d="M365.461,217.222 L365.461,205.087"/><path d="M370.98,229.452 L370.98,217.599"/><path d="M376.468,217.316 L376.468,205.18"/><path d="M381.987,215.121 L381.987,202.923"/><path d="M387.475,200.885 L387.475,188.404"/><path d="M392.994,209.257 L392.994,196.964"/><path d="M398.482,193.923 L398.482,181.317"/><path d="M404.001,197.215 L404.001,184.672"/><path d="M409.488,186.93 L409.488,174.167"/><path d="M415.007,200.477 L415.007,187.996"/><path d="M420.495,205.337 L420.495,192.92"/><path d="M426.014,218.226 L426.014,206.09"/><path d="M431.502,210.261 L431.502,197.937"/><path d="M436.99,203.707 L436.99,191.257"/><path d="M442.509,213.491 L442.509,201.261"/><path d="M447.997,214.18 L447.997,201.95"/><path d="M453.515,196.462 L453.515,183.888"/><path d="M459.004,195.616 L459.004,183.01"/><path d="M464.523,196.306 L464.523,183.731"/><path d="M470.009,215.184 L470.009,202.985"/><path d="M475.529,217.222 L475.529,205.087"/><path d="M481.017,229.452 L481.017,217.599"/><path d="M486.537,217.316 L486.537,205.18"/><path d="M492.023,215.121 L492.023,202.923"/><path d="M497.543,200.885 L497.543,188.404"/><path d="M503.031,209.257 L503.031,196.964"/><path d="M508.549,193.923 L508.549,181.317"/><path d="M514.038,197.215 L514.038,184.672"/><path d="M519.556,186.93 L519.556,174.167"/><path d="M525.044,200.477 L525.044,187.996"/><path d="M530.563,205.337 L530.563,192.92"/><path d="M536.051,218.226 L536.051,206.09"/><path d="M541.57,210.261 L541.57,197.937"/><path d="M326.953,197.498 L329.712,197.498 L329.712,207.376 L335.2,207.376 L335.2,208.065 L340.719,208.065 L340.719,190.191 L346.207,190.191 L346.207,189.313 L351.726,189.313 L351.726,190.003 L357.214,190.003 L357.214,209.069 L362.733,209.069 L362.733,211.139 L368.221,211.139 L368.221,223.525 L373.709,223.525 L373.709,211.264 L379.227,211.264 L379.227,209.006 L384.715,209.006 L384.715,194.644 L390.234,194.644 L390.234,203.111 L395.722,203.111 L395.722,187.62 L401.24,187.62 L401.24,190.944 L406.728,190.944 L406.728,180.533 L412.247,180.533 L412.247,194.236 L417.735,194.236 L417.735,199.129 L423.254,199.129 L423.254,212.142 L428.742,212.142 L428.742,204.083 L434.261,204.083 L434.261,197.498 L439.749,197.498 L439.749,207.376 L445.268,207.376 L445.268,208.065 L450.755,208.065 L450.755,190.191 L456.274,190.191 L456.274,189.313 L461.762,189.313 L461.762,190.003 L467.281,190.003 L467.281,209.069 L472.769,209.069 L472.769,211.139 L478.289,211.139 L478.289,223.525 L483.775,223.525 L483.775,211.264 L489.294,211.265 L489.294,209.006 L494.783,209.006 L494.783,194.645 L500.271,194.645 L500.271,203.111 L505.79,203.111 L505.79,187.62 L511.277,187.62 L511.277,190.944 L516.797,190.944 L516.797,180.533 L522.285,180.533 L522.285,194.237 L527.803,194.237 L527.803,199.129 L533.291,199.129 L533.291,212.142 L538.81,212.142 L538.81,204.084 L544.298,204.084"/><path d="M326.953,174.167 L547.058,174.167 L547.058,118.851 L326.953,118.851 L326.953,174.167 L326.953,169.934"/><path d="M337.96,174.167 L337.96,172.035"/><path d="M348.966,174.167 L348.966,172.035"/><path d="M359.973,174.167 L359.973,172.035"/><path d="M370.98,174.167 L370.98,172.035"/><path d="M381.987,174.167 L381.987,169.934"/><path d="M392.994,174.167 L392.994,172.035"/><path d="M404.001,174.167 L404.001,172.035"/><path d="M415.007,174.167 L415.007,172.035"/><path d="M426.014,174.167 L426.014,172.035"/><path d="M436.99,174.167 L436.99,169.934"/><path d="M447.997,174.167 L447.997,172.035"/><path d="M459.004,174.167 L459.004,172.035"/><path d="M470.009,174.167 L470.009,172.035"/><path d="M481.017,174.167 L481.017,172.035"/><path d="M492.023,174.167 L492.023,169.934"/><path d="M503.031,174.167 L503.031,172.035"/><path d="M514.038,174.167 L514.038,172.035"/><path d="M525.044,174.167 L525.044,172.035"/><path d="M536.051,174.167 L536.051,172.035"/><path d="M547.058,174.167 L547.058,169.934"/><path d="M326.953,123.084 L326.953,118.851"/><path d="M337.96,120.952 L337.96,118.851"/><path d="M348.966,120.952 L348.966,118.851"/><path d="M359.973,120.952 L359.973,118.851"/><path d="M370.98,120.952 L370.98,118.851"/><path d="M381.987,123.084 L381.987,118.851"/><path d="M392.994,120.952 L392.994,118.851"/><path d="M404.001,120.952 L404.001,118.851"/><path d="M415.007,120.952 L415.007,118.851"/><path d="M426.014,120.952 L426.014,118.851"/><path d="M436.99,123.084 L436.99,118.851"/><path d="M447.997,120.952 L447.997,118.851"/><path d="M459.004,120.952 L459.004,118.851"/><path d="M470.009,120.952 L470.009,118.851"/><path d="M481.017,120.952 L481.017,118.851"/><path d="M492.023,123.084 L492.023,118.851"/><path d="M503.031,120.952 L503.031,118.851"/><path d="M514.038,120.952 L514.038,118.851"/><path d="M525.044,120.952 L525.044,118.851"/><path d="M536.051,120.952 L536.051,118.851"/></g><g style="stroke: #000000;fill:none;stroke-width: 0.653;stroke-linejoin:round;stroke-linecap:round;stroke-miterlimit: 10;" id="p3_s2631" idClipZone="p3_c0"><path d="M547.058,123.084 L547.058,118.851"/><path d="M326.953,172.976 L329.054,172.976"/><path d="M326.953,170.687 L329.054,170.687"/><path d="M326.953,168.366 L329.054,168.366"/><path d="M326.953,166.077 L331.186,166.077"/><path d="M326.953,163.787 L329.054,163.787"/><path d="M326.953,161.467 L329.054,161.467"/><path d="M326.953,159.177 L329.054,159.177"/><path d="M326.953,156.857 L329.054,156.857"/><path d="M326.953,154.568 L331.186,154.568"/><path d="M326.953,152.248 L329.054,152.248"/><path d="M326.953,149.958 L329.054,149.958"/><path d="M326.953,147.669 L329.054,147.669"/><path d="M326.953,145.349 L329.054,145.349"/><path d="M326.953,143.06 L331.186,143.06"/><path d="M326.953,140.739 L329.054,140.739"/><path d="M326.953,138.45 L329.054,138.45"/><path d="M326.953,136.161 L329.054,136.161"/><path d="M326.953,133.84 L329.054,133.84"/><path d="M326.953,131.551 L331.186,131.551"/><path d="M326.953,129.231 L329.054,129.231"/><path d="M326.953,126.941 L329.054,126.941"/><path d="M326.953,124.621 L329.054,124.621"/><path d="M326.953,122.332 L329.054,122.332"/><path d="M326.953,120.042 L331.186,120.042"/><path d="M544.957,172.976 L547.058,172.976"/><path d="M544.957,170.687 L547.058,170.687"/><path d="M544.957,168.366 L547.058,168.366"/><path d="M542.824,166.077 L547.058,166.077"/></g><g style="stroke: #000000;fill:none;stroke-width: 0.653;stroke-linejoin:round;stroke-linecap:round;stroke-miterlimit: 10;" id="p3_s2632" idClipZone="p3_c0"><path d="M544.957,163.787 L547.058,163.787"/><path d="M544.957,161.467 L547.058,161.467"/><path d="M544.957,159.177 L547.058,159.177"/><path d="M544.957,156.857 L547.058,156.857"/><path d="M542.824,154.568 L547.058,154.568"/><path d="M544.957,152.248 L547.058,152.248"/><path d="M544.957,149.958 L547.058,149.958"/><path d="M544.957,147.669 L547.058,147.669"/><path d="M544.957,145.349 L547.058,145.349"/><path d="M542.824,143.06 L547.058,143.06"/><path d="M544.957,140.739 L547.058,140.739"/><path d="M544.957,138.45 L547.058,138.45"/><path d="M544.957,136.161 L547.058,136.161"/><path d="M544.957,133.84 L547.058,133.84"/><path d="M542.824,131.551 L547.058,131.551"/><path d="M544.957,129.231 L547.058,129.231"/><path d="M544.957,126.941 L547.058,126.941"/><path d="M544.957,124.621 L547.058,124.621"/><path d="M544.957,122.332 L547.058,122.332"/><path d="M542.824,120.042 L547.058,120.042"/><path d="M310.929,164.038 L311.493,163.756 L312.34,162.909 L312.34,168.836"/><path d="M317.42,162.909 L316.573,163.191 L316.009,164.038 L315.727,165.449 L315.727,166.296 L316.009,167.707 L316.573,168.554 L317.419,168.836 L317.984,168.836 L318.831,168.554 L319.395,167.707 L319.678,166.296 L319.678,165.449 L319.395,164.038 L318.831,163.191 L317.984,162.909 L317.419,162.909"/><path d="M310.929,152.53 L311.493,152.248 L312.34,151.401 L312.34,157.327"/><path d="M316.573,152.53 L317.137,152.248 L317.984,151.401 L317.984,157.327"/><path d="M310.929,141.021 L311.493,140.739 L312.34,139.892 L312.34,145.819"/><path d="M316.009,141.303 L316.009,141.021 L316.291,140.457 L316.573,140.175 L317.137,139.892 L318.266,139.892 L318.831,140.175 L319.113,140.457 L319.395,141.021 L319.395,141.586 L319.113,142.15 L318.549,142.997 L315.727,145.819 L319.678,145.819"/><path d="M310.929,129.482 L311.493,129.199 L312.34,128.353 L312.34,134.279"/><path d="M316.291,128.353 L319.395,128.353 L317.702,130.61 L318.549,130.61 L319.113,130.892 L319.395,131.175 L319.678,132.021 L319.678,132.586 L319.395,133.433 L318.831,133.997 L317.984,134.279 L317.137,134.279 L316.291,133.997 L316.009,133.715 L315.727,133.15"/><path d="M310.929,117.973 L311.493,117.691 L312.34,116.844 L312.34,122.771"/><path d="M318.549,116.844 L315.727,120.795 L319.96,120.795"/><path d="M318.549,116.844 L318.549,122.771"/><path d="M326.953,134.718 L326.953,123.21"/><path d="M332.44,147.638 L332.44,136.318"/><path d="M337.96,155.101 L337.96,143.906"/><path d="M343.447,174.167 L343.447,163.286"/><path d="M348.966,159.428 L348.966,148.328"/><path d="M354.454,157.547 L354.454,146.383"/><path d="M359.973,156.45 L359.973,145.254"/></g><g style="stroke: #000000;fill:none;stroke-width: 0.653;stroke-linejoin:round;stroke-linecap:round;stroke-miterlimit: 10;" id="p3_s2633" idClipZone="p3_c0"><path d="M365.461,154.882 L365.461,143.687"/><path d="M370.98,145.004 L370.98,133.652"/><path d="M376.468,150.366 L376.468,139.108"/><path d="M381.987,156.167 L381.987,145.004"/><path d="M387.475,161.216 L387.475,150.115"/><path d="M392.994,168.742 L392.994,157.767"/><path d="M398.482,162.847 L398.482,151.777"/><path d="M404.001,154.756 L404.001,143.561"/><path d="M409.488,146.415 L409.488,135.094"/><path d="M415.007,143.436 L415.007,132.053"/><path d="M420.495,132.523 L420.495,120.983"/><path d="M426.014,140.3 L426.014,128.854"/><path d="M431.502,130.422 L431.502,118.851"/><path d="M436.99,134.718 L436.99,123.21"/><path d="M442.509,147.638 L442.509,136.318"/><path d="M447.997,155.101 L447.997,143.906"/><path d="M453.515,174.167 L453.515,163.286"/><path d="M459.004,159.428 L459.004,148.328"/><path d="M464.523,157.547 L464.523,146.383"/><path d="M470.009,156.45 L470.009,145.254"/><path d="M475.529,154.882 L475.529,143.687"/><path d="M481.017,145.004 L481.017,133.652"/><path d="M486.537,150.366 L486.537,139.108"/><path d="M492.023,156.167 L492.023,145.004"/><path d="M497.543,161.216 L497.543,150.115"/><path d="M503.031,168.742 L503.031,157.767"/><path d="M508.549,162.847 L508.549,151.777"/><path d="M514.038,154.756 L514.038,143.561"/><path d="M519.556,146.415 L519.556,135.094"/><path d="M525.044,143.436 L525.044,132.053"/><path d="M530.563,132.523 L530.563,120.983"/><path d="M536.051,140.3 L536.051,128.854"/><path d="M541.57,130.422 L541.57,118.851"/><path d="M326.953,128.98 L329.712,128.98 L329.712,141.993 L335.2,141.993 L335.2,149.52 L340.719,149.52 L340.719,168.711 L346.207,168.711 L346.207,153.878 L351.726,153.878 L351.726,151.965 L357.214,151.965 L357.214,150.836 L362.733,150.836 L362.733,149.269 L368.221,149.269 L368.221,139.328 L373.709,139.328 L373.709,144.721 L379.227,144.721 L379.227,150.586 L384.715,150.586 L384.715,155.666 L390.234,155.666 L390.234,163.254 L395.722,163.254 L395.722,157.296 L401.24,157.296 L401.24,149.174 L406.728,149.174 L406.728,140.771 L412.247,140.771 L412.247,137.729 L417.735,137.729 L417.735,126.753 L423.254,126.753 L423.254,134.593 L428.742,134.593 L428.742,124.652 L434.261,124.652 L434.261,128.98 L439.749,128.98 L439.749,141.993 L445.268,141.993 L445.268,149.52 L450.755,149.52 L450.755,168.711 L456.274,168.711 L456.274,153.879 L461.762,153.879 L461.762,151.966 L467.281,151.966 L467.281,150.837 L472.769,150.837 L472.769,149.269 L478.289,149.269 L478.289,139.328 L483.775,139.328 L483.775,144.722 L489.294,144.722 L489.294,150.586 L494.783,150.586 L494.783,155.666 L500.271,155.666 L500.271,163.254 L505.79,163.254 L505.79,157.296 L511.277,157.296 L511.277,149.175 L516.797,149.175 L516.797,140.771 L522.285,140.771 L522.285,137.729 L527.803,137.729 L527.803,126.754 L533.291,126.754 L533.291,134.593 L538.81,134.593 L538.81,124.652 L544.298,124.652"/><path d="M326.953,118.851 L547.058,118.851 L547.058,63.5341 L326.953,63.5341 L326.953,118.851 L326.953,114.617"/><path d="M337.96,118.851 L337.96,116.718"/><path d="M348.966,118.851 L348.966,116.718"/><path d="M359.973,118.851 L359.973,116.718"/><path d="M370.98,118.851 L370.98,116.718"/><path d="M381.987,118.851 L381.987,114.617"/><path d="M392.994,118.851 L392.994,116.718"/><path d="M404.001,118.851 L404.001,116.718"/><path d="M415.007,118.851 L415.007,116.718"/><path d="M426.014,118.851 L426.014,116.718"/><path d="M436.99,118.851 L436.99,114.617"/><path d="M447.997,118.851 L447.997,116.718"/><path d="M459.004,118.851 L459.004,116.718"/><path d="M470.009,118.851 L470.009,116.718"/><path d="M481.017,118.851 L481.017,116.718"/><path d="M492.023,118.851 L492.023,114.617"/><path d="M503.031,118.851 L503.031,116.718"/><path d="M514.038,118.851 L514.038,116.718"/><path d="M525.044,118.851 L525.044,116.718"/><path d="M536.051,118.851 L536.051,116.718"/><path d="M547.058,118.851 L547.058,114.617"/><path d="M326.953,67.7681 L326.953,63.5341"/><path d="M337.96,65.6351 L337.96,63.5341"/><path d="M348.966,65.6351 L348.966,63.5341"/><path d="M359.973,65.6351 L359.973,63.5341"/><path d="M370.98,65.6351 L370.98,63.5341"/><path d="M381.987,67.7681 L381.987,63.5341"/><path d="M392.994,65.6351 L392.994,63.5341"/><path d="M404.001,65.6351 L404.001,63.5341"/><path d="M415.007,65.6351 L415.007,63.5341"/><path d="M426.014,65.6351 L426.014,63.5341"/><path d="M436.99,67.7681 L436.99,63.5341"/><path d="M447.997,65.6351 L447.997,63.5341"/><path d="M459.004,65.6351 L459.004,63.5341"/><path d="M470.009,65.6351 L470.009,63.5341"/><path d="M481.017,65.6351 L481.017,63.5341"/><path d="M492.023,67.7681 L492.023,63.5341"/><path d="M503.031,65.6351 L503.031,63.5341"/><path d="M514.038,65.6351 L514.038,63.5341"/><path d="M525.044,65.6351 L525.044,63.5341"/><path d="M536.051,65.6351 L536.051,63.5341"/><path d="M547.058,67.7681 L547.058,63.5341"/><path d="M326.953,117.377 L329.054,117.377"/><path d="M326.953,114.273 L329.054,114.273"/><path d="M326.953,111.199 L329.054,111.199"/><path d="M326.953,108.095 L331.186,108.095"/><path d="M326.953,105.022 L329.054,105.022"/><path d="M326.953,101.917 L329.054,101.917"/><path d="M326.953,98.8441 L329.054,98.8441"/><path d="M326.953,95.7401 L329.054,95.7401"/><path d="M326.953,92.6671 L331.186,92.6671"/><path d="M326.953,89.5621 L329.054,89.5621"/><path d="M326.953,86.4891 L329.054,86.4891"/><path d="M326.953,83.3841 L329.054,83.3841"/><path d="M326.953,80.3111 L329.054,80.3111"/><path d="M326.953,77.2071 L331.186,77.2071"/><path d="M326.953,74.1331 L329.054,74.1331"/><path d="M326.953,71.0291 L329.054,71.0291"/><path d="M326.953,67.9241 L329.054,67.9241"/><path d="M326.953,64.8521 L329.054,64.8521"/></g><g style="stroke: #000000;fill:none;stroke-width: 0.653;stroke-linejoin:round;stroke-linecap:round;stroke-miterlimit: 10;" id="p3_s2634" idClipZone="p3_c0"><path d="M544.957,117.377 L547.058,117.377"/><path d="M544.957,114.273 L547.058,114.273"/><path d="M544.957,111.199 L547.058,111.199"/><path d="M542.824,108.095 L547.058,108.095"/><path d="M544.957,105.022 L547.058,105.022"/><path d="M544.957,101.917 L547.058,101.917"/><path d="M544.957,98.8441 L547.058,98.8441"/><path d="M544.957,95.7401 L547.058,95.7401"/><path d="M542.824,92.6671 L547.058,92.6671"/><path d="M544.957,89.5621 L547.058,89.5621"/><path d="M544.957,86.4891 L547.058,86.4891"/><path d="M544.957,83.3841 L547.058,83.3841"/><path d="M544.957,80.3111 L547.058,80.3111"/><path d="M542.824,77.2071 L547.058,77.2071"/><path d="M544.957,74.1331 L547.058,74.1331"/><path d="M544.957,71.0291 L547.058,71.0291"/><path d="M544.957,67.9241 L547.058,67.9241"/><path d="M544.957,64.8521 L547.058,64.8521"/><path d="M310.929,106.056 L311.493,105.775 L312.34,104.927 L312.34,110.855"/><path d="M317.42,104.927 L316.573,105.21 L316.009,106.056 L315.727,107.467 L315.727,108.314 L316.009,109.726 L316.573,110.572 L317.419,110.855 L317.984,110.855 L318.831,110.572 L319.395,109.726 L319.678,108.314 L319.678,107.467 L319.395,106.056 L318.831,105.21 L317.984,104.927 L317.419,104.927"/><path d="M310.929,90.5971 L311.493,90.3141 L312.34,89.4681 L312.34,95.3951"/><path d="M316.573,90.5971 L317.137,90.3141 L317.984,89.4681 L317.984,95.3951"/><path d="M310.929,75.1691 L311.493,74.8861 L312.34,74.0401 L312.34,79.9661"/><path d="M316.009,75.4511 L316.009,75.1691 L316.291,74.6041 L316.573,74.3221 L317.137,74.0401 L318.266,74.0401 L318.831,74.3221 L319.113,74.6041 L319.395,75.1691 L319.395,75.7331 L319.113,76.2971 L318.549,77.1441 L315.727,79.9661 L319.678,79.9661"/><path d="M326.953,118.851 L326.953,103.705"/><path d="M332.44,109.317 L332.44,94.0461"/><path d="M337.96,115.84 L337.96,100.663"/><path d="M343.447,102.074 L343.447,86.6771"/><path d="M348.966,93.7961 L348.966,78.2731"/><path d="M354.454,86.3321 L354.454,70.6841"/><path d="M359.973,79.3081 L359.973,63.5341"/><path d="M365.461,80.2481 L365.461,64.5071"/><path d="M370.98,84.9521 L370.98,69.2731"/><path d="M376.468,84.6391 L376.468,68.9601"/><path d="M381.987,102.513 L381.987,87.1481"/><path d="M387.475,109.224 L387.475,93.9521"/><path d="M392.994,102.45 L392.994,87.0851"/><path d="M398.482,89.4051 L398.482,73.7891"/><path d="M404.001,90.8481 L404.001,75.2621"/><path d="M409.488,89.4681 L409.488,73.8521"/><path d="M415.007,83.8551 L415.007,68.1441"/><path d="M420.495,82.9451 L420.495,67.2041"/><path d="M426.014,104.614 L426.014,89.2481"/><path d="M431.502,105.053 L431.502,89.6881"/><path d="M436.99,118.851 L436.99,103.705"/><path d="M442.509,109.317 L442.509,94.0461"/><path d="M447.997,115.84 L447.997,100.663"/></g><g style="stroke: #000000;fill:none;stroke-width: 0.653;stroke-linejoin:round;stroke-linecap:round;stroke-miterlimit: 10;" id="p3_s2635" idClipZone="p3_c0"><path d="M453.515,102.074 L453.515,86.6771"/><path d="M459.004,93.7961 L459.004,78.2731"/><path d="M464.523,86.3321 L464.523,70.6841"/><path d="M470.009,79.3081 L470.009,63.5341"/><path d="M475.529,80.2481 L475.529,64.5071"/><path d="M481.017,84.9521 L481.017,69.2731"/><path d="M486.537,84.6391 L486.537,68.9601"/><path d="M492.023,102.513 L492.023,87.1481"/><path d="M497.543,109.224 L497.543,93.9521"/><path d="M503.031,102.45 L503.031,87.0851"/><path d="M508.549,89.4051 L508.549,73.7891"/><path d="M514.038,90.8481 L514.038,75.2621"/><path d="M519.556,89.4681 L519.556,73.8521"/><path d="M525.044,83.8551 L525.044,68.1441"/><path d="M530.563,82.9451 L530.563,67.2041"/><path d="M536.051,104.614 L536.051,89.2481"/><path d="M541.57,105.053 L541.57,89.6881"/><path d="M326.953,111.293 L329.712,111.293 L329.712,101.667 L335.2,101.667 L335.2,108.252 L340.719,108.252 L340.719,94.3601 L346.207,94.3601 L346.207,86.0501 L351.726,86.0501 L351.726,78.5231 L357.214,78.5231 L357.214,71.4371 L362.733,71.4371 L362.733,72.3771 L368.221,72.3771 L368.221,77.1131 L373.709,77.1131 L373.709,76.7991 L379.227,76.7991 L379.227,94.8301 L384.715,94.8301 L384.715,101.604 L390.234,101.604 L390.234,94.7681 L395.722,94.7681 L395.722,81.5971 L401.24,81.5971 L401.24,83.0711 L406.728,83.0711 L406.728,81.6601 L412.247,81.6601 L412.247,75.9841 L417.735,75.9841 L417.735,75.0741 L423.254,75.0741 L423.254,96.9311 L428.742,96.9311 L428.742,97.3701 L434.261,97.3701 L434.261,111.293 L439.749,111.293 L439.749,101.667 L445.268,101.667 L445.268,108.252 L450.755,108.252 L450.755,94.3601 L456.274,94.3601 L456.274,86.0501 L461.762,86.0501 L461.762,78.5231 L467.281,78.5231 L467.281,71.4371 L472.769,71.4371 L472.769,72.3771 L478.289,72.3771 L478.289,77.1131 L483.775,77.1131 L483.775,76.7991 L489.294,76.7991 L489.294,94.8301 L494.783,94.8301 L494.783,101.604 L500.271,101.604 L500.271,94.7681 L505.79,94.7681 L505.79,81.5971 L511.277,81.5971 L511.277,83.0711 L516.797,83.0711 L516.797,81.6601 L522.285,81.6601 L522.285,75.9841 L527.803,75.9841 L527.803,75.0741 L533.291,75.0741 L533.291,96.9311 L538.81,96.9311 L538.81,97.3701 L544.298,97.3701"/></g></svg>
