<?xml version="1.0" encoding="UTF-8"?>
<svg xmlns="http://www.w3.org/2000/svg"><g style="stroke: #000000;fill:none;stroke-width: 0.366;stroke-linejoin:round;stroke-linecap:round;stroke-miterlimit: 10;" id="p4_s2992" idClipZone="p4_c0"><path d="M71.0318,208.055 L286.226,208.055 L286.226,64.0911 L71.0318,64.0911 L71.0318,208.055 Z"/><path d="M79.6548,208.055 L79.6548,204.494"/><path d="M102.942,208.055 L102.942,206.287"/><path d="M126.228,208.055 L126.228,204.494"/><path d="M149.514,208.055 L149.514,206.287"/><path d="M172.8,208.055 L172.8,204.494"/><path d="M196.088,208.055 L196.088,206.287"/><path d="M219.374,208.055 L219.374,204.494"/><path d="M242.66,208.055 L242.66,206.287"/><path d="M265.947,208.055 L265.947,204.494"/><path d="M79.6548,67.6511 L79.6548,64.0911"/><path d="M102.942,65.8581 L102.942,64.0911"/><path d="M126.228,67.6511 L126.228,64.0911"/><path d="M149.514,65.8581 L149.514,64.0911"/><path d="M172.8,67.6511 L172.8,64.0911"/><path d="M196.088,65.8581 L196.088,64.0911"/><path d="M219.374,67.6511 L219.374,64.0911"/><path d="M242.66,65.8581 L242.66,64.0911"/><path d="M265.947,67.6511 L265.947,64.0911"/><path d="M63.7528,212.327 L61.3798,212.327 L61.1418,214.463 L61.3798,214.226 L62.0908,213.988 L62.8038,213.988 L63.5158,214.226 L63.9898,214.701 L64.2278,215.412 L64.2278,215.887 L63.9898,216.599 L63.5158,217.074 L62.8028,217.311 L62.0908,217.311 L61.3798,217.074 L61.1418,216.838 L60.9048,216.363"/><path d="M66.1268,216.838 L65.8888,217.074 L66.1268,217.311 L66.3638,217.074 L66.1268,216.838"/><path d="M68.7368,213.277 L69.2118,213.039 L69.9238,212.327 L69.9238,217.311"/><path d="M73.9588,212.327 L73.2468,212.564 L73.0088,213.039 L73.0088,213.514 L73.2468,213.988 L73.7218,214.226 L74.6708,214.463 L75.3828,214.701 L75.8578,215.176 L76.0948,215.65 L76.0948,216.362 L75.8578,216.838 L75.6198,217.074 L74.9088,217.311 L73.9588,217.311 L73.2468,217.074 L73.0088,216.838 L72.7718,216.363 L72.7718,215.65 L73.0088,215.176 L73.4838,214.701 L74.1958,214.464 L75.1458,214.226 L75.6198,213.988 L75.8578,213.514 L75.8578,213.039 L75.6198,212.565 L74.9088,212.328 L73.9588,212.328"/><path d="M78.7058,212.327 L77.9938,212.564 L77.7568,213.039 L77.7568,213.514 L77.9938,213.988 L78.4678,214.226 L79.4178,214.463 L80.1298,214.701 L80.6048,215.176 L80.8418,215.65 L80.8418,216.362 L80.6048,216.838 L80.3668,217.074 L79.6548,217.311 L78.7058,217.311 L77.9938,217.074 L77.7568,216.838 L77.5188,216.363 L77.5188,215.65 L77.7568,215.176 L78.2318,214.701 L78.9438,214.464 L79.8928,214.226 L80.3668,213.988 L80.6048,213.514 L80.6048,213.039 L80.3668,212.565 L79.6548,212.328 L78.7058,212.328"/><path d="M82.4768,213.514 L85.7998,216.838"/><path d="M85.7998,213.514 L82.4768,216.838"/></g><g style="stroke: #000000;fill:none;stroke-width: 0.366;stroke-linejoin:round;stroke-linecap:round;stroke-miterlimit: 10;" id="p4_s2993" idClipZone="p4_c0"><path d="M88.1738,213.277 L88.6478,213.039 L89.3608,212.327 L89.3608,217.311"/><path d="M93.6318,212.327 L92.9208,212.564 L92.4448,213.277 L92.2088,214.463 L92.2088,215.176 L92.4448,216.362 L92.9208,217.074 L93.6318,217.311 L94.1068,217.311 L94.8188,217.074 L95.2938,216.362 L95.5308,215.176 L95.5308,214.463 L95.2938,213.277 L94.8188,212.564"/><path d="M94.8188,212.565 L94.1068,212.328 L93.6318,212.328"/><path d="M98.5638,209.769 L96.7968,212.274 L99.4608,212.274"/><path d="M98.5638,209.769 L98.5638,213.514"/><path d="M112.699,212.327 L110.326,212.327 L110.089,214.463 L110.326,214.226 L111.038,213.988 L111.75,213.988 L112.462,214.226 L112.937,214.701 L113.174,215.412 L113.174,215.887 L112.937,216.599 L112.462,217.074 L111.75,217.311 L111.038,217.311 L110.326,217.074 L110.089,216.838 L109.851,216.363"/><path d="M115.073,216.838 L114.836,217.074 L115.073,217.311 L115.31,217.074 L115.073,216.838"/><path d="M117.684,213.277 L118.158,213.039 L118.87,212.327 L118.87,217.311"/><path d="M124.804,213.988 L124.567,214.701 L124.092,215.176 L123.38,215.412 L123.142,215.412 L122.431,215.176 L121.956,214.701 L121.718,213.988 L121.718,213.752 L121.956,213.039 L122.431,212.564 L123.142,212.327 L123.38,212.327 L124.092,212.564 L124.567,213.039 L124.804,213.988 L124.804,215.176 L124.567,216.363 L124.092,217.074 L123.38,217.311 L122.905,217.311 L122.193,217.074 L121.956,216.599"/><path d="M126.703,213.514 L130.026,216.838"/><path d="M130.026,213.514 L126.703,216.838"/><path d="M132.399,213.277 L132.874,213.039 L133.586,212.327 L133.586,217.311"/><path d="M137.858,212.327 L137.146,212.564 L136.672,213.277 L136.433,214.463 L136.433,215.176 L136.672,216.362 L137.146,217.074 L137.858,217.311 L138.334,217.311 L139.045,217.074 L139.519,216.362 L139.757,215.176 L139.757,214.463 L139.519,213.277 L139.045,212.564"/><path d="M139.045,212.565 L138.334,212.328 L137.858,212.328"/><path d="M142.763,209.769 L140.996,212.274 L143.66,212.274"/><path d="M142.763,209.769 L142.763,213.514"/><path d="M156.898,212.327 L154.525,212.327 L154.289,214.463 L154.525,214.226 L155.238,213.988 L155.949,213.988 L156.662,214.226 L157.136,214.701 L157.373,215.412 L157.373,215.887 L157.136,216.599 L156.662,217.074 L155.949,217.311 L155.238,217.311 L154.525,217.074 L154.289,216.838 L154.05,216.363"/><path d="M159.272,216.838 L159.035,217.074 L159.272,217.311 L159.509,217.074 L159.272,216.838"/><path d="M161.882,213.277 L162.357,213.039 L163.07,212.327 L163.07,217.311"/><path d="M169.004,213.988 L168.766,214.701 L168.291,215.176 L167.58,215.412 L167.341,215.412 L166.63,215.176 L166.155,214.701 L165.918,213.988 L165.918,213.752 L166.155,213.039 L166.63,212.564 L167.341,212.327 L167.58,212.327 L168.291,212.564 L168.766,213.039 L169.004,213.988 L169.004,215.176 L168.766,216.363 L168.291,217.074 L167.58,217.311 L167.104,217.311 L166.392,217.074 L166.155,216.599"/><path d="M170.902,213.514 L170.902,213.277 L171.138,212.803 L171.377,212.564 L171.851,212.327 L172.8,212.327 L173.275,212.564 L173.513,212.803 L173.75,213.277 L173.75,213.752 L173.513,214.226 L173.039,214.937 L170.664,217.311 L173.988,217.311"/><path d="M175.649,213.514 L178.972,216.838"/><path d="M178.972,213.514 L175.649,216.838"/><path d="M181.345,213.277 L181.82,213.039 L182.532,212.327 L182.532,217.311"/><path d="M186.804,212.327 L186.092,212.564 L185.618,213.277 L185.381,214.463 L185.381,215.176 L185.618,216.362 L186.092,217.074 L186.804,217.311 L187.279,217.311 L187.991,217.074 L188.466,216.362 L188.703,215.176 L188.703,214.463 L188.466,213.277 L187.991,212.564"/><path d="M187.991,212.565 L187.279,212.328 L186.804,212.328"/><path d="M191.71,209.769 L189.943,212.274 L192.607,212.274"/><path d="M191.71,209.769 L191.71,213.514"/><path d="M203.471,212.327 L201.097,212.327 L200.86,214.463 L201.097,214.226 L201.81,213.988 L202.522,213.988 L203.234,214.226 L203.709,214.701 L203.947,215.412 L203.947,215.887 L203.709,216.599 L203.234,217.074 L202.522,217.311 L201.81,217.311 L201.097,217.074 L200.86,216.838 L200.624,216.363"/><path d="M205.845,216.838 L205.607,217.074 L205.845,217.311 L206.082,217.074 L205.845,216.838"/><path d="M208.456,213.277 L208.93,213.039 L209.642,212.327 L209.642,217.311"/><path d="M215.576,213.988 L215.34,214.701 L214.864,215.176 L214.152,215.412 L213.915,215.412 L213.203,215.176 L212.728,214.701 L212.49,213.988 L212.49,213.752 L212.728,213.039 L213.203,212.564 L213.915,212.327 L214.152,212.327 L214.864,212.564 L215.34,213.039 L215.576,213.988 L215.576,215.176 L215.34,216.363 L214.864,217.074 L214.152,217.311 L213.677,217.311 L212.965,217.074 L212.728,216.599"/><path d="M219.611,212.327 L217.238,215.65 L220.798,215.65"/><path d="M219.611,212.327 L219.611,217.311"/><path d="M222.221,213.514 L225.545,216.838"/><path d="M225.545,213.514 L222.221,216.838"/><path d="M227.918,213.277 L228.392,213.039 L229.105,212.327 L229.105,217.311"/><path d="M233.377,212.327 L232.665,212.564 L232.191,213.277 L231.953,214.463 L231.953,215.176 L232.191,216.362 L232.665,217.074 L233.377,217.311 L233.851,217.311 L234.564,217.074 L235.039,216.362 L235.276,215.176 L235.276,214.463 L235.039,213.277 L234.564,212.564"/><path d="M234.564,212.565 L233.851,212.328 L233.377,212.328"/><path d="M238.308,209.769 L236.515,212.274 L239.179,212.274"/><path d="M238.308,209.769 L238.308,213.514"/><path d="M250.045,212.327 L247.671,212.327 L247.433,214.463 L247.671,214.226 L248.382,213.988 L249.094,213.988 L249.806,214.226 L250.282,214.701 L250.519,215.412 L250.519,215.887 L250.282,216.599 L249.806,217.074 L249.094,217.311 L248.382,217.311 L247.671,217.074 L247.433,216.838 L247.196,216.363"/><path d="M252.418,216.838 L252.18,217.074 L252.418,217.311 L252.654,217.074 L252.418,216.838"/><path d="M255.029,213.277 L255.504,213.039 L256.216,212.327 L256.216,217.311"/><path d="M262.148,213.988 L261.912,214.701 L261.437,215.176 L260.724,215.412 L260.488,215.412 L259.775,215.176 L259.3,214.701 L259.063,213.988 L259.063,213.752 L259.3,213.039 L259.775,212.564 L260.488,212.327 L260.724,212.327 L261.437,212.564 L261.912,213.039 L262.148,213.988 L262.148,215.176 L261.912,216.363 L261.437,217.074 L260.724,217.311 L260.25,217.311 L259.539,217.074 L259.3,216.599"/><path d="M266.896,213.039 L266.658,212.564 L265.947,212.327 L265.472,212.327 L264.759,212.564 L264.285,213.277 L264.048,214.463 L264.048,215.65 L264.285,216.599 L264.759,217.074 L265.472,217.311 L265.709,217.311 L266.422,217.074 L266.896,216.599 L267.132,215.887 L267.132,215.65 L266.896,214.938 L266.422,214.464 L265.709,214.226 L265.472,214.226 L264.759,214.464 L264.285,214.938 L264.048,215.65"/><path d="M268.795,213.514 L272.118,216.838"/><path d="M272.118,213.514 L268.795,216.838"/><path d="M274.491,213.277 L274.966,213.039 L275.677,212.327 L275.677,217.311"/><path d="M279.95,212.327 L279.238,212.564 L278.763,213.277 L278.525,214.463 L278.525,215.176 L278.763,216.362 L279.238,217.074 L279.95,217.311 L280.424,217.311 L281.136,217.074 L281.611,216.362 L281.849,215.176 L281.849,214.463 L281.611,213.277 L281.136,212.564"/><path d="M281.136,212.565 L280.424,212.328 L279.95,212.328"/><path d="M284.882,209.769 L283.088,212.274 L285.752,212.274"/><path d="M284.882,209.769 L284.882,213.514"/><path d="M71.0318,205.39 L72.8248,205.39"/><path d="M71.0318,195.924 L74.5918,195.924"/><path d="M71.0318,186.456 L72.8248,186.456"/><path d="M71.0318,176.989 L72.8248,176.989"/><path d="M71.0318,167.521 L72.8248,167.521"/><path d="M71.0318,158.027 L72.8248,158.027"/><path d="M71.0318,148.56 L74.5918,148.56"/><path d="M71.0318,139.093 L72.8248,139.093"/><path d="M71.0318,129.625 L72.8248,129.625"/><path d="M71.0318,120.131 L72.8248,120.131"/><path d="M71.0318,110.663 L72.8248,110.663"/><path d="M71.0318,101.196 L74.5918,101.196"/><path d="M71.0318,91.7281 L72.8248,91.7281"/><path d="M71.0318,82.2611 L72.8248,82.2611"/><path d="M71.0318,72.7671 L72.8248,72.7671"/><path d="M284.433,205.39 L286.226,205.39"/><path d="M282.666,195.924 L286.226,195.924"/><path d="M284.433,186.456 L286.226,186.456"/><path d="M284.433,176.989 L286.226,176.989"/><path d="M284.433,167.521 L286.226,167.521"/><path d="M284.433,158.027 L286.226,158.027"/><path d="M282.666,148.56 L286.226,148.56"/><path d="M284.433,139.093 L286.226,139.093"/><path d="M284.433,129.625 L286.226,129.625"/><path d="M284.433,120.131 L286.226,120.131"/><path d="M284.433,110.663 L286.226,110.663"/><path d="M282.666,101.196 L286.226,101.196"/><path d="M284.433,91.7281 L286.226,91.7281"/><path d="M284.433,82.2611 L286.226,82.2611"/><path d="M284.433,72.7671 L286.226,72.7671"/><path d="M60.6408,196.162 L60.8788,196.873 L61.5908,197.348 L62.7778,197.585 L63.4888,197.585 L64.6758,197.348 L65.3878,196.873 L65.6248,196.162 L65.6248,195.687 L65.3878,194.974 L64.6758,194.5 L63.4888,194.262 L62.7778,194.262 L61.5908,194.5 L60.8788,194.974 L60.6408,195.687 L60.6408,196.162"/><path d="M60.6408,147.373 L60.6408,149.746 L62.7778,149.984 L62.5398,149.746 L62.3028,149.034 L62.3028,148.322 L62.5398,147.611 L63.0138,147.137 L63.7268,146.898 L64.2008,146.898 L64.9138,147.137 L65.3878,147.611 L65.6248,148.322 L65.6248,149.034 L65.3878,149.746"/><path d="M65.3878,149.748 L65.1508,149.984 L64.6758,150.223"/><path d="M61.5908,104.519 L61.3528,104.044 L60.6408,103.332 L65.6258,103.332"/><path d="M60.6408,99.0601 L60.8788,99.7721 L61.5908,100.246 L62.7778,100.484 L63.4888,100.484 L64.6758,100.246 L65.3878,99.7721 L65.6248,99.0601 L65.6248,98.5851 L65.3878,97.8731 L64.6758,97.3981 L63.4888,97.1611 L62.7778,97.1611 L61.5908,97.3981 L60.8788,97.8731 L60.6408,98.5851 L60.6408,99.0601"/><path d="M137.884,90.1991 L137.884,85.9791"/><path d="M154.181,86.1641 L154.181,83.1581"/><path d="M168.16,116.017 L168.16,112.589"/><path d="M189.099,125.062 L189.099,124.139"/><path d="M189.099,125.986 L189.099,124.403"/><path d="M203.076,144.288 L203.076,142.072"/></g><g style="stroke: #000000;fill:none;stroke-width: 0.27;stroke-linejoin:miter;stroke-linecap:square;stroke-miterlimit: 10;" id="p4_s2994" idClipZone="p4_c0"><path d="M136.461,89.5131 L139.309,89.5131 L139.309,86.6651 L136.461,86.6651 L136.461,89.5131 Z"/><path d="M152.758,86.0851 L155.606,86.0851 L155.606,83.2371 L152.758,83.2371 L152.758,86.0851 Z"/><path d="M166.736,115.726 L169.584,115.726 L169.584,112.878 L166.736,112.878 L166.736,115.726 Z"/><path d="M187.674,126.038 L190.522,126.038 L190.522,123.19 L187.674,123.19 L187.674,126.038 Z"/><path d="M187.674,126.619 L190.522,126.619 L190.522,123.77 L187.674,123.77 L187.674,126.619 Z"/><path d="M201.651,144.603 L204.5,144.603 L204.5,141.755 L201.651,141.755 L201.651,144.603 Z"/></g><g style="stroke: #000000;fill:none;stroke-width: 0.366;stroke-linejoin:round;stroke-linecap:round;stroke-miterlimit: 10;" id="p4_s2995" idClipZone="p4_c0"><path d="M88.9648,178.281 L88.9648,177.965"/><path d="M105.263,176.514 L105.263,176.223"/><path d="M123.907,178.466 L123.907,178.228"/><path d="M123.907,179.257 L123.907,178.756"/><path d="M137.884,166.757 L137.884,166.15"/><path d="M154.181,165.965 L154.181,165.516"/><path d="M168.16,172.242 L168.16,171.715"/><path d="M189.099,125.775 L189.099,125.115"/><path d="M189.099,126.566 L189.099,125.459"/><path d="M203.076,178.228 L203.076,177.912"/><path d="M221.72,184.795 L221.72,184.295"/><path d="M221.72,184.663 L221.72,184.136"/><path d="M238.019,187.67 L238.019,187.301"/><path d="M254.316,187.431 L254.316,187.115"/><path d="M268.293,187.537 L268.293,187.168"/><path d="M268.293,186.246 L268.293,185.666"/><path d="M224.042,184.795 L224.042,184.295"/><path d="M224.042,184.663 L224.042,184.136"/><path d="M224.042,183.608 L224.042,182.369"/></g><g style="stroke: #000000;fill:none;stroke-width: 0.27;stroke-linejoin:miter;stroke-linecap:square;stroke-miterlimit: 10;" id="p4_s2996" idClipZone="p4_c0"><path d="M88.9648,176.223 L87.3028,179.072 L90.6258,179.072 L88.9648,176.223 Z"/><path d="M105.263,174.483 L103.601,177.332 L106.924,177.332 L105.263,174.483 Z"/><path d="M123.907,176.461 L122.246,179.309 L125.569,179.309 L123.907,176.461 Z"/><path d="M123.907,177.094 L122.246,179.942 L125.569,179.942 L123.907,177.094 Z"/><path d="M137.884,164.568 L136.222,167.416 L139.546,167.416 L137.884,164.568 Z"/><path d="M154.181,163.83 L152.521,166.677 L155.843,166.677 L154.181,163.83 Z"/><path d="M168.16,170.08 L166.498,172.928 L169.82,172.928 L168.16,170.08 Z"/><path d="M189.099,123.56 L187.437,126.408 L190.759,126.408 L189.099,123.56 Z"/><path d="M189.099,124.113 L187.437,126.961 L190.759,126.961 L189.099,124.113 Z"/><path d="M203.076,176.172 L201.414,179.019 L204.737,179.019 L203.076,176.172 Z"/><path d="M221.72,182.633 L220.059,185.48 L223.382,185.48 L221.72,182.633 Z"/><path d="M221.72,182.502 L220.059,185.348 L223.382,185.348 L221.72,182.502 Z"/><path d="M238.019,185.586 L236.357,188.433 L239.679,188.433 L238.019,185.586 Z"/><path d="M254.316,185.376 L252.654,188.223 L255.977,188.223 L254.316,185.376 Z"/><path d="M268.293,185.455 L266.632,188.303 L269.955,188.303 L268.293,185.455 Z"/><path d="M268.293,184.056 L266.632,186.904 L269.955,186.904 L268.293,184.056 Z"/><path d="M224.042,182.633 L222.381,185.48 L225.703,185.48 L224.042,182.633 Z"/><path d="M224.042,182.502 L222.381,185.348 L225.703,185.348 L224.042,182.502 Z"/><path d="M224.042,181.102 L222.381,183.951 L225.703,183.951 L224.042,181.102 Z"/></g><g style="stroke: #000000;fill:none;stroke-width: 0.366;stroke-linejoin:round;stroke-linecap:round;stroke-miterlimit: 10;" id="p4_s2997" idClipZone="p4_c0"><path d="M172.326,227.754 L172.326,232.738"/><path d="M172.326,227.754 L174.225,232.738"/><path d="M176.125,227.754 L174.225,232.738"/><path d="M176.125,227.754 L176.125,232.738"/><path d="M179.922,227.754 L179.922,231.553 L179.684,232.264 L179.447,232.502 L178.972,232.738 L178.498,232.738 L178.022,232.502 L177.785,232.264 L177.548,231.553 L177.548,231.078"/><path d="M181.82,227.754 L181.82,232.738"/><path d="M181.82,227.754 L183.482,227.754 L184.193,227.992 L184.668,228.467 L184.906,228.941 L185.142,229.653 L185.142,230.841 L184.906,231.553 L184.668,232.027 L184.193,232.502 L183.482,232.738 L181.82,232.738"/><path d="M49.0638,166.44 L54.0488,166.44"/><path d="M49.0638,166.44 L49.0638,163.355"/><path d="M51.4378,166.44 L51.4378,164.541"/><path d="M49.0638,162.168 L54.0488,162.168"/><path d="M50.7248,160.269 L53.0988,160.269 L53.8108,160.032 L54.0488,159.556 L54.0488,158.845 L53.8108,158.37 L53.0988,157.658"/><path d="M50.7248,157.658 L54.0488,157.658"/><path d="M50.7248,155.998 L54.0488,153.387"/><path d="M50.7248,153.387 L54.0488,155.998"/><path d="M48.1138,146.265 L48.5888,146.74 L49.3008,147.215 L50.2508,147.689 L51.4378,147.927 L52.3868,147.927 L53.5728,147.689 L54.5228,147.215 L55.2348,146.74 L55.7098,146.265"/><path d="M50.2508,141.281 L49.7758,141.518 L49.3008,141.994 L49.0638,142.469 L49.0638,143.418 L49.3008,143.892 L49.7758,144.367 L50.2508,144.603 L50.9628,144.842 L52.1498,144.842 L52.8618,144.603 L53.3358,144.367 L53.8108,143.892 L54.0488,143.418 L54.0488,142.469 L53.8108,141.994 L53.3358,141.519 L52.8618,141.282"/><path d="M49.0638,139.383 L53.0988,139.383 L53.8108,139.145 L54.0488,138.671 L54.0488,138.195"/><path d="M50.7248,140.095 L50.7248,138.433"/><path d="M48.1138,133 L55.7098,137.246"/><path d="M49.0638,131.576 L54.0488,131.576"/><path d="M49.0638,131.576 L49.0638,129.44 L49.3008,128.728 L49.5388,128.491 L50.0138,128.254"/><path d="M50.0128,128.254 L50.7248,128.254 L51.1998,128.491 L51.4378,128.728 L51.6748,129.44 L51.6748,131.576"/><path d="M50.2508,123.269 L49.7758,123.507 L49.3008,123.981 L49.0638,124.456 L49.0638,125.406 L49.3008,125.881 L49.7758,126.355 L50.2508,126.592 L50.9628,126.83 L52.1498,126.83 L52.8618,126.592 L53.3358,126.355 L53.8108,125.881 L54.0488,125.406 L54.0488,124.456 L53.8108,123.981"/><path d="M53.8108,123.982 L53.3358,123.508 L52.8618,123.269"/><path d="M49.0638,121.607 L52.6248,121.607 L53.3358,121.371 L53.8108,120.896 L54.0488,120.183 L54.0488,119.709 L53.8108,118.997 L53.3358,118.522 L52.6248,118.285 L49.0638,118.285"/><path d="M48.1138,112.589 L55.7098,116.861"/><path d="M51.4378,108.791 L50.9628,109.029 L50.7248,109.741 L50.7248,110.452 L50.9628,111.164 L51.4378,111.402 L51.9118,111.164 L52.1498,110.69 L52.3868,109.503 L52.6248,109.029 L53.0988,108.791 L53.3358,108.791 L53.8108,109.029 L54.0488,109.741 L54.0488,110.452 L53.8108,111.164 L53.3358,111.402"/><path d="M48.1138,107.367 L48.5888,106.892 L49.3008,106.418 L50.2508,105.943 L51.4378,105.705 L52.3868,105.705 L53.5728,105.943 L54.5228,106.418 L55.2348,106.892 L55.7098,107.367"/></g><g style="stroke: #000000;fill:none;stroke-width: 0.366;stroke-linejoin:round;stroke-linecap:round;stroke-miterlimit: 10;" id="p4_s3050" idClipZone="p4_c0"><path d="M71.0378,453.088 L286.22,453.088 L286.22,309.113 L71.0378,309.113 L71.0378,453.088 Z"/><path d="M82.5628,453.088 L82.5628,451.32"/><path d="M95.3808,453.088 L95.3808,451.32"/><path d="M108.198,453.088 L108.198,451.32"/><path d="M120.99,453.088 L120.99,449.526"/><path d="M133.807,453.088 L133.807,451.32"/><path d="M146.625,453.088 L146.625,451.32"/><path d="M159.416,453.088 L159.416,451.32"/><path d="M172.234,453.088 L172.234,451.32"/><path d="M185.05,453.088 L185.05,449.526"/><path d="M197.842,453.088 L197.842,451.32"/><path d="M210.66,453.088 L210.66,451.32"/><path d="M223.478,453.088 L223.478,451.32"/><path d="M236.268,453.088 L236.268,451.32"/><path d="M249.087,453.088 L249.087,449.526"/><path d="M261.904,453.088 L261.904,451.32"/><path d="M274.695,453.088 L274.695,451.32"/><path d="M82.5628,310.88 L82.5628,309.113"/><path d="M95.3808,310.88 L95.3808,309.113"/><path d="M108.198,310.88 L108.198,309.113"/><path d="M120.99,312.674 L120.99,309.113"/><path d="M133.807,310.88 L133.807,309.113"/><path d="M146.625,310.88 L146.625,309.113"/><path d="M159.416,310.88 L159.416,309.113"/><path d="M172.234,310.88 L172.234,309.113"/><path d="M185.05,312.674 L185.05,309.113"/><path d="M197.842,310.88 L197.842,309.113"/><path d="M210.66,310.88 L210.66,309.113"/><path d="M223.478,310.88 L223.478,309.113"/><path d="M236.268,310.88 L236.268,309.113"/><path d="M249.087,312.674 L249.087,309.113"/><path d="M261.904,310.88 L261.904,309.113"/><path d="M274.695,310.88 L274.695,309.113"/><path d="M105.087,457.359 L102.713,457.359 L102.475,459.496 L102.713,459.258 L103.425,459.02 L104.137,459.02 L104.849,459.258 L105.323,459.732 L105.561,460.445 L105.561,460.92 L105.323,461.632 L104.849,462.106 L104.137,462.344 L103.425,462.344 L102.713,462.106"/><path d="M102.713,462.107 L102.475,461.869 L102.238,461.395"/><path d="M107.46,461.869 L107.223,462.106 L107.46,462.344 L107.697,462.106 L107.46,461.869"/><path d="M110.071,458.309 L110.546,458.071 L111.257,457.359 L111.257,462.344"/><path d="M117.192,459.02 L116.954,459.732 L116.48,460.207 L115.768,460.445 L115.53,460.445 L114.818,460.207 L114.344,459.732 L114.106,459.02 L114.106,458.783 L114.344,458.071 L114.818,457.598 L115.53,457.359 L115.768,457.359 L116.48,457.598 L116.954,458.071 L117.192,459.021 L117.192,460.209 L116.954,461.395 L116.48,462.107 L115.768,462.344 L115.293,462.344 L114.581,462.107 L114.344,461.633"/><path d="M119.565,458.309 L120.04,458.071 L120.752,457.359 L120.752,462.344"/><path d="M123.838,458.546 L127.161,461.869"/><path d="M127.161,458.546 L123.838,461.869"/><path d="M129.534,458.309 L130.009,458.071 L130.721,457.359 L130.721,462.344"/><path d="M134.994,457.359 L134.281,457.598 L133.807,458.309 L133.57,459.496 L133.57,460.207 L133.807,461.395 L134.281,462.106 L134.994,462.344 L135.468,462.344 L136.181,462.106 L136.656,461.395 L136.892,460.207 L136.892,459.496 L136.656,458.309 L136.181,457.598 L135.468,457.359 L134.994,457.359"/><path d="M139.925,454.801 L138.132,457.307 L140.797,457.307"/><path d="M139.925,454.801 L139.925,458.546"/><path d="M169.122,457.359 L166.748,457.359 L166.51,459.496 L166.748,459.258 L167.461,459.02 L168.172,459.02 L168.883,459.258 L169.359,459.732 L169.596,460.445 L169.596,460.92 L169.359,461.632 L168.883,462.106 L168.172,462.344 L167.461,462.344 L166.748,462.106"/><path d="M166.748,462.107 L166.51,461.869 L166.273,461.395"/><path d="M171.495,461.869 L171.257,462.106 L171.495,462.344 L171.732,462.106 L171.495,461.869"/><path d="M174.105,458.309 L174.58,458.071 L175.293,457.359 L175.293,462.344"/><path d="M181.226,459.02 L180.99,459.732 L180.515,460.207 L179.802,460.445 L179.565,460.445 L178.853,460.207 L178.379,459.732 L178.14,459.02 L178.14,458.783 L178.379,458.071 L178.853,457.598 L179.565,457.359 L179.802,457.359 L180.515,457.598 L180.99,458.071 L181.226,459.021 L181.226,460.209 L180.99,461.395 L180.515,462.107 L179.802,462.344 L179.328,462.344 L178.615,462.107 L178.379,461.633"/><path d="M183.127,458.546 L183.127,458.309 L183.363,457.834 L183.601,457.598 L184.076,457.359 L185.025,457.359 L185.5,457.598 L185.737,457.834 L185.973,458.309 L185.973,458.783 L185.737,459.258 L185.261,459.971 L182.888,462.344 L186.212,462.344"/><path d="M187.873,458.546 L191.196,461.869"/><path d="M191.196,458.546 L187.873,461.869"/><path d="M193.57,458.309 L194.045,458.071 L194.757,457.359 L194.757,462.344"/><path d="M199.029,457.359 L198.317,457.598 L197.842,458.309 L197.605,459.496 L197.605,460.207 L197.842,461.395 L198.317,462.106 L199.029,462.344 L199.504,462.344 L200.216,462.106 L200.69,461.395 L200.927,460.207 L200.927,459.496 L200.69,458.309 L200.216,457.598 L199.504,457.359 L199.029,457.359"/><path d="M203.961,454.801 L202.168,457.307 L204.857,457.307"/><path d="M203.961,454.801 L203.961,458.546"/><path d="M233.183,457.359 L230.81,457.359 L230.572,459.496 L230.81,459.258 L231.521,459.02 L232.233,459.02 L232.945,459.258 L233.42,459.732 L233.657,460.445 L233.657,460.92 L233.42,461.632 L232.945,462.106 L232.233,462.344 L231.521,462.344 L230.81,462.106"/><path d="M230.81,462.107 L230.572,461.869 L230.336,461.395"/><path d="M235.556,461.869 L235.319,462.106 L235.556,462.344 L235.794,462.106 L235.556,461.869"/><path d="M238.168,458.309 L238.642,458.071 L239.354,457.359 L239.354,462.344"/><path d="M245.289,459.02 L245.051,459.732 L244.576,460.207 L243.865,460.445 L243.627,460.445 L242.915,460.207 L242.44,459.732 L242.203,459.02 L242.203,458.783 L242.44,458.071 L242.915,457.598 L243.627,457.359 L243.865,457.359 L244.576,457.598 L245.051,458.071 L245.289,459.021 L245.289,460.209 L245.051,461.395 L244.576,462.107 L243.865,462.344 L243.389,462.344 L242.677,462.107 L242.44,461.633"/><path d="M247.424,457.359 L250.035,457.359 L248.611,459.258 L249.324,459.258 L249.799,459.496 L250.035,459.732 L250.273,460.445 L250.273,460.92 L250.035,461.632 L249.56,462.106 L248.849,462.344 L248.137,462.344 L247.424,462.106 L247.187,461.869 L246.949,461.395"/><path d="M251.934,458.546 L255.257,461.869"/><path d="M255.257,458.546 L251.934,461.869"/><path d="M257.631,458.309 L258.105,458.071 L258.818,457.359 L258.818,462.344"/><path d="M263.091,457.359 L262.378,457.598 L261.904,458.309 L261.666,459.496 L261.666,460.207 L261.904,461.395 L262.378,462.106 L263.091,462.344 L263.566,462.344 L264.277,462.106 L264.726,461.395 L264.963,460.207 L264.963,459.496 L264.726,458.309 L264.277,457.598 L263.566,457.359 L263.091,457.359"/><path d="M267.996,454.801 L266.228,457.307 L268.893,457.307"/><path d="M267.996,454.801 L267.996,458.546"/><path d="M71.0378,446.02 L74.5978,446.02"/><path d="M71.0378,418.775 L72.8308,418.775"/><path d="M71.0378,391.531 L74.5978,391.531"/><path d="M71.0378,364.287 L72.8308,364.287"/><path d="M71.0378,337.017 L74.5978,337.017"/><path d="M71.0378,309.773 L72.8308,309.773"/><path d="M282.687,446.02 L286.219,446.02"/><path d="M284.454,418.775 L286.219,418.775"/><path d="M282.687,391.531 L286.219,391.531"/><path d="M284.454,364.287 L286.219,364.287"/><path d="M282.687,337.017 L286.219,337.017"/><path d="M284.454,309.773 L286.219,309.773"/><path d="M60.6468,446.256 L60.8838,446.969 L61.5958,447.442 L62.7828,447.68 L63.4948,447.68 L64.6818,447.442 L65.3938,446.969 L65.6308,446.256 L65.6308,445.781 L65.3938,445.069 L64.6818,444.595 L63.4948,444.357 L62.7828,444.357 L61.5958,444.595 L60.8838,445.069 L60.6468,445.781 L60.6468,446.256"/><path d="M61.8338,392.955 L61.5958,392.955 L61.1218,392.718 L60.8838,392.48 L60.6468,392.006 L60.6468,391.057 L60.8838,390.582 L61.1218,390.344 L61.5958,390.107 L62.0708,390.107 L62.5458,390.344 L63.2568,390.818 L65.6308,393.193 L65.6308,389.869"/><path d="M60.6468,336.305 L63.9698,338.678 L63.9698,335.118"/><path d="M60.6468,336.305 L65.6318,336.305"/><path d="M87.2048,435.259 L90.7648,435.259"/><path d="M88.9718,435.259 L88.9718,427.135"/><path d="M87.2048,427.135 L90.7648,427.135"/><path d="M132.04,427.979 L135.574,427.979"/><path d="M133.807,427.979 L133.807,420.041"/><path d="M132.04,420.041 L135.574,420.041"/><path d="M170.466,428.242 L174.001,428.242"/><path d="M172.234,428.242 L172.234,419.223"/><path d="M170.466,419.223 L174.001,419.223"/><path d="M228.092,376.603 L231.654,376.603"/><path d="M229.859,376.603 L229.859,365.104"/><path d="M228.092,365.104 L231.654,365.104"/><path d="M228.092,376.287 L231.654,376.287"/><path d="M229.859,376.287 L229.859,356.559"/><path d="M228.092,356.559 L231.654,356.559"/><path d="M266.519,437.236 L270.08,437.236"/><path d="M268.287,437.236 L268.287,431.355"/><path d="M266.519,431.355 L270.08,431.355"/></g><g style="stroke: #000000;fill:none;stroke-width: 0.27;stroke-linejoin:miter;stroke-linecap:square;stroke-miterlimit: 10;" id="p4_s3051" idClipZone="p4_c0"><path d="M87.5478,432.621 L90.3958,432.621 L90.3958,429.772 L87.5478,429.772 L87.5478,432.621 Z"/><path d="M132.383,425.447 L135.231,425.447 L135.231,422.599 L132.383,422.599 L132.383,425.447 Z"/><path d="M170.809,425.156 L173.658,425.156 L173.658,422.308 L170.809,422.308 L170.809,425.156 Z"/><path d="M228.435,372.277 L231.283,372.277 L231.283,369.429 L228.435,369.429 L228.435,372.277 Z"/><path d="M228.435,367.848 L231.283,367.848 L231.283,364.999 L228.435,364.999 L228.435,367.848 Z"/><path d="M266.862,435.732 L269.71,435.732 L269.71,432.884 L266.862,432.884 L266.862,435.732 Z"/></g><g style="stroke: #000000;fill:none;stroke-width: 0.366;stroke-linejoin:round;stroke-linecap:round;stroke-miterlimit: 10;" id="p4_s3052" idClipZone="p4_c0"><path d="M87.2048,394.986 L90.7648,394.986"/><path d="M88.9718,394.986 L88.9718,356.454"/><path d="M87.2048,356.454 L90.7648,356.454"/><path d="M132.04,360.542 L135.574,360.542"/><path d="M133.807,360.542 L133.807,322.907"/><path d="M132.04,322.907 L135.574,322.907"/><path d="M170.466,361.782 L174.001,361.782"/><path d="M172.234,361.782 L172.234,318.924"/><path d="M170.466,318.924 L174.001,318.924"/><path d="M228.092,375.68 L231.654,375.68"/><path d="M229.859,375.68 L229.859,364.023"/><path d="M228.092,364.023 L231.654,364.023"/><path d="M228.092,375.364 L231.654,375.364"/><path d="M229.859,375.364 L229.859,355.347"/><path d="M228.092,355.347 L231.654,355.347"/><path d="M266.519,404.349 L270.08,404.349"/><path d="M268.287,404.349 L268.287,376.524"/><path d="M266.519,376.524 L270.08,376.524"/></g><g style="stroke: #000000;fill:none;stroke-width: 0.27;stroke-linejoin:miter;stroke-linecap:square;stroke-miterlimit: 10;" id="p4_s3053" idClipZone="p4_c0"><path d="M88.9718,373.808 L87.3098,376.656 L90.6328,376.656 L88.9718,373.808 Z"/><path d="M133.807,339.813 L132.146,342.661 L135.468,342.661 L133.807,339.813 Z"/><path d="M172.234,338.441 L170.572,341.289 L173.894,341.289 L172.234,338.441 Z"/><path d="M229.859,367.953 L228.199,370.801 L231.521,370.801 L229.859,367.953 Z"/><path d="M229.859,363.443 L228.199,366.291 L231.521,366.291 L229.859,363.443 Z"/><path d="M268.287,388.551 L266.624,391.399 L269.947,391.399 L268.287,388.551 Z"/></g><g style="stroke: #000000;fill:none;stroke-width: 0.366;stroke-linejoin:round;stroke-linecap:round;stroke-miterlimit: 10;" id="p4_s3054" idClipZone="p4_c0"><path d="M172.339,472.788 L172.339,477.772"/><path d="M172.339,472.788 L174.238,477.772"/><path d="M176.137,472.788 L174.238,477.772"/><path d="M176.137,472.788 L176.137,477.772"/><path d="M179.934,472.788 L179.934,476.586 L179.697,477.297 L179.46,477.535 L178.985,477.772 L178.51,477.772 L178.036,477.535 L177.799,477.297 L177.561,476.586 L177.561,476.111"/><path d="M181.834,472.788 L181.834,477.772"/><path d="M181.834,472.788 L183.495,472.788 L184.207,473.025 L184.682,473.5 L184.92,473.975 L185.157,474.686 L185.157,475.874 L184.92,476.586 L184.682,477.06 L184.207,477.535 L183.495,477.772 L181.834,477.772"/><path d="M49.0688,440.559 L54.0528,440.559"/><path d="M49.0688,440.559 L49.0688,438.424 L49.3058,437.711 L49.5428,437.474 L50.0178,437.236 L50.7298,437.236 L51.2048,437.474 L51.4428,437.711 L51.6798,438.424 L51.6798,440.559"/><path d="M50.7298,435.574 L53.1038,435.574 L53.8158,435.338 L54.0528,434.863 L54.0528,434.15 L53.8158,433.676 L53.1038,432.963"/><path d="M50.7298,432.963 L54.0528,432.963"/><path d="M49.0688,431.065 L54.0528,431.065"/><path d="M51.4428,426.793 L50.9678,427.029 L50.7298,427.742 L50.7298,428.454 L50.9678,429.166 L51.4428,429.402 L51.9168,429.166 L52.1538,428.691 L52.3918,427.505 L52.6298,427.029 L53.1038,426.793 L53.3408,426.793 L53.8158,427.029 L54.0528,427.742 L54.0528,428.454 L53.8158,429.166 L53.3408,429.402"/><path d="M52.1538,425.368 L52.1538,422.52 L51.6798,422.52 L51.2048,422.757 L50.9678,422.994 L50.7298,423.469 L50.7298,424.182 L50.9678,424.656 L51.4428,425.131 L52.1538,425.368 L52.6288,425.368 L53.3408,425.131 L53.8158,424.656 L54.0528,424.182 L54.0528,423.469"/><path d="M54.0528,423.47 L53.8158,422.995 L53.3408,422.52"/><path d="M49.0688,415.873 L54.0528,417.772"/><path d="M49.0688,415.873 L54.0528,413.975"/><path d="M52.3918,417.06 L52.3918,414.686"/><path d="M50.7298,412.787 L54.0528,412.787"/><path d="M51.6798,412.787 L50.9678,412.076 L50.7298,411.601 L50.7298,410.889 L50.9678,410.414 L51.6798,410.178 L54.0528,410.178"/><path d="M51.6798,410.178 L50.9678,409.465 L50.7298,408.99 L50.7298,408.278 L50.9678,407.804 L51.6798,407.566 L54.0528,407.566"/><path d="M50.7298,405.668 L55.7148,405.668"/><path d="M51.4428,405.668 L50.9678,405.193 L50.7298,404.718 L50.7298,404.006 L50.9678,403.531 L51.4428,403.057 L52.1538,402.818 L52.6298,402.818 L53.3408,403.057 L53.8158,403.531 L54.0528,404.006 L54.0528,404.718 L53.8158,405.193 L53.3408,405.668"/></g><g style="stroke: #000000;fill:none;stroke-width: 0.366;stroke-linejoin:round;stroke-linecap:round;stroke-miterlimit: 10;" id="p4_s3055" idClipZone="p4_c0"><path d="M49.0688,401.157 L54.0528,401.157"/><path d="M49.0688,399.496 L49.3058,399.258 L49.0688,399.021 L48.8308,399.258 L49.0688,399.496"/><path d="M50.7298,399.258 L54.0528,399.258"/><path d="M49.0688,397.122 L53.1038,397.122 L53.8158,396.885 L54.0528,396.41 L54.0528,395.936"/><path d="M50.7298,397.834 L50.7298,396.172"/><path d="M50.7298,394.512 L53.1038,394.512 L53.8158,394.273 L54.0528,393.799 L54.0528,393.086 L53.8158,392.612 L53.1038,391.9"/><path d="M50.7298,391.9 L54.0528,391.9"/><path d="M49.0688,387.391 L54.0528,387.391"/><path d="M51.4428,387.391 L50.9678,387.865 L50.7298,388.34 L50.7298,389.052 L50.9678,389.526 L51.4428,390.001 L52.1538,390.238 L52.6298,390.238 L53.3408,390.001 L53.8158,389.526 L54.0528,389.052 L54.0528,388.34 L53.8158,387.865 L53.3408,387.391"/><path d="M52.1538,385.729 L52.1538,382.881 L51.6798,382.881 L51.2048,383.118 L50.9678,383.355 L50.7298,383.83 L50.7298,384.542 L50.9678,385.017 L51.4428,385.491 L52.1538,385.729 L52.6288,385.729 L53.3408,385.491 L53.8158,385.017 L54.0528,384.542 L54.0528,383.83 L53.8158,383.355 L53.3408,382.881"/><path d="M48.1188,375.76 L48.5938,376.234 L49.3058,376.709 L50.2558,377.183 L51.4428,377.421 L52.3918,377.421 L53.5788,377.183 L54.5278,376.709 L55.2398,376.234 L55.7148,375.76"/><path d="M50.2558,370.775 L49.7808,371.012 L49.3058,371.486 L49.0688,371.962 L49.0688,372.911 L49.3058,373.386 L49.7808,373.861 L50.2558,374.098 L50.9678,374.336 L52.1538,374.336 L52.8658,374.098 L53.3408,373.861 L53.8158,373.386 L54.0528,372.911 L54.0528,371.962 L53.8158,371.487 L53.3408,371.013 L52.8658,370.775"/><path d="M50.7298,368.164 L50.9678,368.639 L51.4428,369.113 L52.1538,369.35 L52.6298,369.35 L53.3408,369.113 L53.8158,368.639 L54.0528,368.164 L54.0528,367.452 L53.8158,366.976 L53.3408,366.502 L52.6288,366.265 L52.1538,366.265 L51.4428,366.502 L50.9678,366.976 L50.7298,367.452 L50.7298,368.164"/><path d="M50.7298,364.603 L53.1038,364.603 L53.8158,364.366 L54.0528,363.892 L54.0528,363.18 L53.8158,362.704 L53.1038,361.992"/><path d="M50.7298,361.992 L54.0528,361.992"/><path d="M50.7298,360.094 L54.0528,360.094"/><path d="M51.6798,360.094 L50.9678,359.381 L50.7298,358.907 L50.7298,358.195 L50.9678,357.72 L51.6798,357.482 L54.0528,357.482"/><path d="M49.0688,355.347 L53.1038,355.347 L53.8158,355.109 L54.0528,354.634 L54.0528,354.16"/><path d="M50.7298,356.058 L50.7298,354.397"/><path d="M48.1188,348.938 L55.7148,353.21"/><path d="M49.0688,347.514 L54.0528,347.514"/><path d="M49.0688,347.514 L49.0688,345.377 L49.3058,344.665 L49.5428,344.428 L50.0178,344.19 L50.7298,344.19 L51.2048,344.428 L51.4428,344.665 L51.6798,345.377 L51.6798,347.514"/><path d="M50.2558,339.206 L49.7808,339.443 L49.3058,339.917 L49.0688,340.392 L49.0688,341.342 L49.3058,341.816 L49.7808,342.291 L50.2558,342.529 L50.9678,342.766 L52.1538,342.766 L52.8658,342.529 L53.3408,342.291 L53.8158,341.816 L54.0528,341.342 L54.0528,340.392 L53.8158,339.917 L53.3408,339.443 L52.8658,339.206"/><path d="M49.0688,337.544 L52.6298,337.544 L53.3408,337.307 L53.8158,336.832 L54.0528,336.12 L54.0528,335.645 L53.8158,334.933 L53.3408,334.458 L52.6298,334.221 L49.0688,334.221"/><path d="M48.1188,328.524 L55.7148,332.797"/><path d="M51.4428,324.726 L50.9678,324.964 L50.7298,325.676 L50.7298,326.388 L50.9678,327.1 L51.4428,327.337 L51.9168,327.1 L52.1538,326.625 L52.3918,325.438 L52.6298,324.964 L53.1038,324.726 L53.3408,324.726 L53.8158,324.964 L54.0528,325.676 L54.0528,326.388 L53.8158,327.1 L53.3408,327.338"/><path d="M48.1188,323.302 L48.5938,322.828 L49.3058,322.353 L50.2558,321.878 L51.4428,321.641 L52.3918,321.641 L53.5788,321.878 L54.5278,322.353 L55.2398,322.828 L55.7148,323.302"/></g><g style="stroke: #000000;fill:none;stroke-width: 0.527;stroke-linejoin:round;stroke-linecap:round;stroke-miterlimit: 10;" id="p4_s3278" idClipZone="p4_c0"><path d="M336.478,161.109 L548.988,161.109 L548.988,66.7071 L336.478,66.7071 L336.478,161.109 Z"/><path d="M358.162,161.109 L358.162,159.414"/><path d="M384.173,161.109 L384.173,159.414"/><path d="M404.338,161.109 L404.338,159.414"/><path d="M420.809,161.109 L420.809,159.414"/><path d="M434.75,161.109 L434.75,159.414"/><path d="M446.82,161.109 L446.82,159.414"/><path d="M457.472,161.109 L457.472,159.414"/><path d="M466.985,161.109 L466.985,157.693"/><path d="M529.633,161.109 L529.633,159.414"/><path d="M358.162,68.4281 L358.162,66.7071"/><path d="M384.173,68.4281 L384.173,66.7071"/><path d="M404.338,68.4281 L404.338,66.7071"/><path d="M420.809,68.4281 L420.809,66.7071"/><path d="M434.75,68.4281 L434.75,66.7071"/><path d="M446.82,68.4281 L446.82,66.7071"/><path d="M457.472,68.4281 L457.472,66.7071"/><path d="M466.985,70.1231 L466.985,66.7071"/><path d="M529.633,68.4281 L529.633,66.7071"/><path d="M336.478,160.451 L338.174,160.451"/><path d="M336.478,157.439 L338.174,157.439"/><path d="M336.478,154.834 L338.174,154.834"/><path d="M336.478,152.531 L338.174,152.531"/><path d="M336.478,150.481 L339.894,150.481"/><path d="M336.478,136.92 L338.174,136.92"/><path d="M336.478,129.001 L338.174,129.001"/><path d="M336.478,123.383 L338.174,123.383"/><path d="M336.478,119.005 L338.174,119.005"/><path d="M336.478,115.464 L338.174,115.464"/><path d="M336.478,112.453 L338.174,112.453"/><path d="M336.478,109.821 L338.174,109.821"/><path d="M336.478,107.519 L338.174,107.519"/><path d="M336.478,105.469 L339.894,105.469"/><path d="M336.478,91.9331 L338.174,91.9331"/><path d="M336.478,83.9881 L338.174,83.9881"/><path d="M336.478,78.3711 L338.174,78.3711"/><path d="M336.478,74.0201 L338.174,74.0201"/><path d="M336.478,70.4521 L338.174,70.4521"/><path d="M336.478,67.4411 L338.174,67.4411"/><path d="M547.293,160.451 L548.988,160.451"/><path d="M547.293,157.439 L548.988,157.439"/><path d="M547.293,154.834 L548.988,154.834"/><path d="M547.293,152.531 L548.988,152.531"/><path d="M545.572,150.481 L548.988,150.481"/><path d="M547.293,136.92 L548.988,136.92"/><path d="M547.293,129.001 L548.988,129.001"/><path d="M547.293,123.383 L548.988,123.383"/><path d="M547.293,119.005 L548.988,119.005"/><path d="M547.293,115.464 L548.988,115.464"/><path d="M547.293,112.453 L548.988,112.453"/><path d="M547.293,109.821 L548.988,109.821"/><path d="M547.293,107.519 L548.988,107.519"/><path d="M545.572,105.469 L548.988,105.469"/><path d="M547.293,91.9331 L548.988,91.9331"/><path d="M547.293,83.9881 L548.988,83.9881"/><path d="M547.293,78.3711 L548.988,78.3711"/><path d="M547.293,74.0201 L548.988,74.0201"/><path d="M547.293,70.4521 L548.988,70.4521"/><path d="M547.293,67.4411 L548.988,67.4411"/><path d="M326.509,154.125 L326.737,154.808 L327.42,155.264 L328.559,155.492 L329.242,155.492 L330.381,155.264 L331.063,154.808 L331.291,154.125 L331.291,153.67 L331.063,152.986 L330.381,152.531 L329.242,152.303 L328.559,152.303 L327.42,152.531 L326.737,152.986 L326.509,153.67 L326.509,154.125"/><path d="M330.836,150.481 L331.064,150.709 L331.291,150.481 L331.064,150.253 L330.836,150.481"/><path d="M327.42,147.976 L327.192,147.521 L326.509,146.837 L331.291,146.837"/><path d="M327.42,106.38 L327.192,105.925 L326.509,105.242 L331.291,105.242"/><path d="M354.594,78.0431 L366.259,78.0431"/><path d="M360.616,78.4981 L360.616,77.6121"/><path d="M366.259,72.8811 L376.607,72.8811"/><path d="M371.572,73.2601 L371.572,72.5271"/><path d="M376.607,71.1351 L385.892,71.1351"/><path d="M381.364,71.5151 L381.364,70.8061"/><path d="M385.892,69.2881 L394.319,69.2881"/><path d="M390.194,69.6421 L390.194,68.9591"/><path d="M394.319,69.7691 L402.009,69.7691"/><path d="M398.24,70.1231 L398.24,69.4401"/><path d="M402.009,71.1091 L409.12,71.1091"/><path d="M405.654,71.4641 L405.654,70.7551"/><path d="M409.12,73.2351 L415.723,73.2351"/><path d="M412.485,73.6141 L412.485,72.8811"/><path d="M415.723,73.7921 L421.872,73.7921"/><path d="M418.861,74.1711 L418.861,73.4381"/><path d="M421.872,74.6021 L427.64,74.6021"/><path d="M424.806,74.9811 L424.806,74.2221"/><path d="M427.64,76.7011 L433.08,76.7011"/><path d="M430.398,77.1061 L430.398,76.2971"/><path d="M433.08,77.2071 L438.191,77.2071"/><path d="M435.661,77.6121 L435.661,76.8031"/><path d="M438.191,80.0411 L443.049,80.0411"/><path d="M440.646,80.4971 L440.646,79.5861"/><path d="M443.049,81.6861 L447.654,81.6861"/><path d="M445.378,82.1671 L445.378,81.2051"/><path d="M447.654,83.7861 L452.032,83.7861"/><path d="M449.881,84.2921 L449.881,83.2801"/><path d="M452.032,85.9621 L456.232,85.9621"/><path d="M454.157,86.4931 L454.157,85.4301"/><path d="M456.232,88.4671 L460.229,88.4671"/><path d="M458.256,89.0491 L458.256,87.8851"/><path d="M460.229,90.2891 L464.075,90.2891"/><path d="M462.178,90.9211 L462.178,89.7071"/><path d="M464.075,92.5661 L467.769,92.5661"/><path d="M465.947,93.2231 L465.947,91.9081"/><path d="M467.769,95.4501 L471.311,95.4501"/><path d="M469.541,96.1841 L469.541,94.7421"/><path d="M471.311,98.9171 L474.727,98.9171"/><path d="M473.032,99.7511 L473.032,98.0821"/><path d="M474.727,99.5491 L478.017,99.5491"/><path d="M476.372,100.435 L476.372,98.7391"/><path d="M478.017,102.054 L481.18,102.054"/><path d="M479.611,103.015 L479.611,101.143"/><path d="M481.18,103.167 L484.266,103.167"/><path d="M482.748,104.179 L482.748,102.231"/><path d="M484.266,105.621 L487.226,105.621"/><path d="M485.76,106.71 L485.76,104.584"/><path d="M487.226,107.974 L490.111,107.974"/><path d="M488.694,109.189 L488.694,106.836"/><path d="M490.111,111.289 L492.92,111.289"/><path d="M491.528,112.681 L491.528,109.999"/></g><g style="stroke: #000000;fill:none;stroke-width: 0.527;stroke-linejoin:round;stroke-linecap:round;stroke-miterlimit: 10;" id="p4_s3279" idClipZone="p4_c0"><path d="M492.92,112.782 L495.627,112.782"/><path d="M494.285,114.25 L494.285,111.416"/><path d="M495.627,115.464 L498.258,115.464"/><path d="M496.967,117.109 L496.967,113.946"/><path d="M498.258,118.222 L500.84,118.222"/><path d="M499.549,120.068 L499.549,116.527"/><path d="M500.84,121.461 L503.318,121.461"/><path d="M502.078,123.611 L502.078,119.538"/><path d="M503.318,120.296 L505.772,120.296"/><path d="M504.558,122.345 L504.558,118.474"/><path d="M505.772,124.395 L508.125,124.395"/><path d="M506.963,126.875 L506.963,122.195"/><path d="M508.125,124.953 L510.427,124.953"/><path d="M509.289,127.533 L509.289,122.675"/><path d="M510.427,130.494 L512.706,130.494"/><path d="M511.566,133.934 L511.566,127.558"/><path d="M512.706,133.428 L514.906,133.428"/><path d="M513.794,137.425 L513.794,130.088"/><path d="M514.906,135.782 L517.056,135.782"/><path d="M515.969,140.31 L515.969,132.138"/><path d="M517.056,140.234 L519.158,140.234"/><path d="M518.12,145.902 L518.12,135.832"/><path d="M519.158,144.232 L521.207,144.232"/><path d="M520.195,151.214 L520.195,139.121"/><path d="M521.207,141.778 L523.23,141.778"/><path d="M522.219,147.648 L522.219,137.273"/><path d="M523.23,144.612 L525.205,144.612"/><path d="M524.218,151.341 L524.218,139.627"/><path d="M525.205,149.849 L527.127,149.849"/><path d="M526.166,158.856 L526.166,143.701"/><path d="M527.127,143.548 L529.025,143.548"/><path d="M528.089,149.671 L528.089,138.869"/><path d="M529.025,149.698 L530.872,149.698"/><path d="M529.961,158.503 L529.961,143.65"/><path d="M354.594,78.3211 L366.259,78.3211 L366.259,73.0071 L376.607,73.0071 L376.607,70.5281 L385.892,70.5281 L385.892,69.6681 L394.319,69.6681 L394.319,69.8191 L402.009,69.8191 L402.009,70.9071 L409.12,70.9071 L409.12,72.5521 L415.723,72.5521 L415.723,74.0201 L421.872,74.0201 L421.872,75.2841 L427.64,75.2841 L427.64,76.6261 L433.08,76.6261 L433.08,78.1941 L438.191,78.1941 L438.191,79.9151 L443.049,79.9151 L443.049,81.7621 L447.654,81.7621 L447.654,83.7111 L452.032,83.7111 L452.032,85.7851 L456.232,85.7851 L456.232,87.9361 L460.229,87.9361 L460.229,90.1621 L464.075,90.1621 L464.075,92.4401 L467.769,92.4401 L467.769,94.7171 L471.311,94.7171 L471.311,97.0691 L474.727,97.0691 L474.727,99.4481 L478.015,99.4481 L478.015,101.877 L481.18,101.877 L481.18,104.306 L484.265,104.306 L484.265,106.71 L487.226,106.71 L487.226,109.113 L490.111,109.113 L490.111,111.517 L492.92,111.517 L492.92,113.871 L495.627,113.871 L495.627,116.199 L498.258,116.199 L498.258,118.501 L500.839,118.501 L500.839,120.803 L503.318,120.803 L503.318,123.081 L505.772,123.081 L505.772,125.332 L508.125,125.332 L508.125,127.585 L510.427,127.585 L510.427,129.785 L512.705,129.785 L512.705,131.986 L514.906,131.986 L514.906,134.163 L517.056,134.163 L517.056,136.289 L519.158,136.289 L519.158,138.413 L521.207,138.413 L521.207,140.513 L523.23,140.513 L523.23,142.563 L525.205,142.563 L525.205,144.612 L527.127,144.612 L527.127,146.611 L529.025,146.611 L529.025,148.61 L530.872,148.61"/><path d="M354.594,78.3211 L366.259,78.3211"/><path d="M360.616,78.3211 L360.616,78.3211"/><path d="M366.259,73.0071 L376.607,73.0071"/><path d="M371.572,73.0071 L371.572,73.0071"/><path d="M376.607,70.5281 L385.892,70.5281"/><path d="M381.364,70.5281 L381.364,70.5281"/><path d="M385.892,69.6681 L394.319,69.6681"/><path d="M390.194,69.6681 L390.194,69.6681"/><path d="M394.319,69.8191 L402.009,69.8191"/><path d="M398.24,69.8191 L398.24,69.8191"/><path d="M402.009,70.9071 L409.12,70.9071"/><path d="M405.654,70.9071 L405.654,70.9071"/><path d="M409.12,72.5521 L415.723,72.5521"/><path d="M412.485,72.5521 L412.485,72.5521"/><path d="M415.723,74.0201 L421.872,74.0201"/><path d="M418.861,74.0201 L418.861,74.0201"/><path d="M421.872,75.2841 L427.64,75.2841"/><path d="M424.806,75.2841 L424.806,75.2841"/><path d="M427.64,76.6261 L433.08,76.6261"/><path d="M430.398,76.6261 L430.398,76.6261"/><path d="M433.08,78.1941 L438.191,78.1941"/><path d="M435.661,78.1941 L435.661,78.1941"/><path d="M438.191,79.9151 L443.049,79.9151"/><path d="M440.646,79.9151 L440.646,79.9151"/><path d="M443.049,81.7621 L447.654,81.7621"/><path d="M445.378,81.7621 L445.378,81.7621"/><path d="M447.654,83.7101 L452.032,83.7101"/><path d="M449.881,83.7101 L449.881,83.7101"/><path d="M452.032,85.7851 L456.232,85.7851"/><path d="M454.157,85.7851 L454.157,85.7851"/><path d="M456.232,87.9361 L460.229,87.9361"/><path d="M458.256,87.9361 L458.256,87.9361"/><path d="M460.229,90.1621 L464.075,90.1621"/><path d="M462.178,90.1621 L462.178,90.1621"/></g><g style="stroke: #000000;fill:none;stroke-width: 0.527;stroke-linejoin:round;stroke-linecap:round;stroke-miterlimit: 10;" id="p4_s3280" idClipZone="p4_c0"><path d="M464.075,92.4391 L467.769,92.4391"/><path d="M465.947,92.4391 L465.947,92.4391"/><path d="M467.769,94.7161 L471.311,94.7161"/><path d="M469.541,94.7161 L469.541,94.7161"/><path d="M471.311,97.0691 L474.727,97.0691"/><path d="M473.032,97.0691 L473.032,97.0691"/><path d="M474.727,99.4481 L478.017,99.4481"/><path d="M476.372,99.4481 L476.372,99.4481"/><path d="M478.017,101.877 L481.18,101.877"/><path d="M479.611,101.877 L479.611,101.877"/><path d="M481.18,104.306 L484.266,104.306"/><path d="M482.748,104.306 L482.748,104.306"/><path d="M484.266,106.71 L487.226,106.71"/><path d="M485.76,106.71 L485.76,106.71"/><path d="M487.226,109.113 L490.111,109.113"/><path d="M488.694,109.113 L488.694,109.113"/><path d="M490.111,111.517 L492.92,111.517"/><path d="M491.528,111.517 L491.528,111.517"/><path d="M492.92,113.87 L495.627,113.87"/><path d="M494.285,113.87 L494.285,113.87"/><path d="M495.627,116.197 L498.258,116.197"/><path d="M496.967,116.197 L496.967,116.197"/><path d="M498.258,118.5 L500.84,118.5"/><path d="M499.549,118.5 L499.549,118.5"/><path d="M500.84,120.802 L503.318,120.802"/><path d="M502.078,120.802 L502.078,120.802"/><path d="M503.318,123.08 L505.772,123.08"/><path d="M504.558,123.08 L504.558,123.08"/><path d="M505.772,125.332 L508.125,125.332"/><path d="M506.963,125.332 L506.963,125.332"/><path d="M508.125,127.584 L510.427,127.584"/><path d="M509.289,127.584 L509.289,127.584"/><path d="M510.427,129.785 L512.706,129.785"/><path d="M511.566,129.785 L511.566,129.785"/><path d="M512.706,131.986 L514.906,131.986"/><path d="M513.794,131.986 L513.794,131.986"/><path d="M514.906,134.162 L517.056,134.162"/><path d="M515.969,134.162 L515.969,134.162"/><path d="M517.056,136.287 L519.158,136.287"/><path d="M518.12,136.287 L518.12,136.287"/><path d="M519.158,138.413 L521.207,138.413"/><path d="M520.195,138.413 L520.195,138.413"/><path d="M521.207,140.512 L523.23,140.512"/><path d="M522.219,140.512 L522.219,140.512"/><path d="M523.23,142.562 L525.205,142.562"/><path d="M524.218,142.562 L524.218,142.562"/><path d="M525.205,144.612 L527.127,144.612"/><path d="M526.166,144.612 L526.166,144.612"/><path d="M527.127,146.611 L529.025,146.611"/><path d="M528.089,146.611 L528.089,146.611"/><path d="M529.025,148.609 L530.872,148.609"/><path d="M529.961,148.609 L529.961,148.609"/><path d="M313.352,163.107 L316.541,163.107"/><path d="M314.263,163.107 L313.58,162.423 L313.352,161.968 L313.352,161.286 L313.58,160.83 L314.263,160.602 L316.541,160.602"/><path d="M313.352,157.87 L313.58,158.326 L314.036,158.781 L314.719,159.007 L315.174,159.007 L315.857,158.781 L316.313,158.326 L316.541,157.87 L316.541,157.187 L316.313,156.731 L315.857,156.275 L315.174,156.047 L314.719,156.047"/><path d="M314.719,156.048 L314.035,156.277 L313.58,156.732 L313.352,157.187 L313.352,157.87"/><path d="M313.352,154.455 L316.541,154.455"/><path d="M314.719,154.455 L314.036,154.226 L313.58,153.771 L313.352,153.316 L313.352,152.632"/><path d="M313.352,151.494 L316.541,151.494"/><path d="M314.263,151.494 L313.58,150.81 L313.352,150.355 L313.352,149.671 L313.58,149.216 L314.263,148.988 L316.541,148.988"/><path d="M314.263,148.988 L313.58,148.305 L313.352,147.85 L313.352,147.168 L313.58,146.712 L314.263,146.484 L316.541,146.484"/><path d="M313.352,142.157 L316.541,142.157"/><path d="M314.036,142.157 L313.58,142.613 L313.352,143.068 L313.352,143.752 L313.58,144.207 L314.036,144.662 L314.719,144.89 L315.174,144.89 L315.857,144.662 L316.313,144.207 L316.541,143.752 L316.541,143.068 L316.313,142.613 L315.857,142.157"/></g><g style="stroke: #000000;fill:none;stroke-width: 0.527;stroke-linejoin:round;stroke-linecap:round;stroke-miterlimit: 10;" id="p4_s3281" idClipZone="p4_c0"><path d="M311.759,140.336 L316.541,140.336"/><path d="M311.759,138.742 L311.986,138.513 L311.759,138.286 L311.556,138.513 L311.759,138.742"/><path d="M313.352,138.513 L316.541,138.513"/><path d="M313.352,134.415 L316.541,136.92"/><path d="M313.352,136.92 L313.352,134.415"/><path d="M316.541,136.92 L316.541,134.415"/><path d="M314.719,133.048 L314.719,130.316 L314.263,130.316 L313.808,130.544 L313.58,130.771 L313.352,131.226 L313.352,131.91 L313.58,132.365 L314.036,132.821 L314.719,133.048 L315.174,133.048 L315.857,132.821 L316.313,132.365 L316.541,131.91 L316.541,131.226"/><path d="M316.541,131.227 L316.313,130.771 L315.857,130.316"/><path d="M311.759,126.217 L316.541,126.217"/><path d="M314.036,126.217 L313.58,126.673 L313.352,127.128 L313.352,127.811 L313.58,128.266 L314.036,128.721 L314.719,128.95 L315.174,128.95 L315.857,128.721 L316.313,128.266 L316.541,127.811 L316.541,127.128 L316.313,126.673 L315.857,126.217"/><path d="M314.036,118.248 L313.58,118.703 L313.352,119.158 L313.352,119.841 L313.58,120.296 L314.036,120.752 L314.719,120.98 L315.174,120.98 L315.857,120.752 L316.313,120.296 L316.541,119.841 L316.541,119.158 L316.313,118.703 L315.857,118.248"/><path d="M313.352,115.742 L313.58,116.197 L314.036,116.653 L314.719,116.88 L315.174,116.88 L315.857,116.653 L316.313,116.197 L316.541,115.742 L316.541,115.059 L316.313,114.603 L315.857,114.148 L315.174,113.92 L314.719,113.92 L314.035,114.148 L313.58,114.603 L313.352,115.059 L313.352,115.742"/><path d="M313.352,112.326 L315.63,112.326 L316.313,112.099 L316.541,111.643 L316.541,110.961 L316.313,110.505 L315.63,109.821"/><path d="M313.352,109.821 L316.541,109.821"/><path d="M313.352,108 L316.541,108"/><path d="M314.263,108 L313.58,107.316 L313.352,106.861 L313.352,106.178 L313.58,105.723 L314.263,105.495 L316.541,105.495"/><path d="M311.759,103.445 L315.63,103.445 L316.313,103.218 L316.541,102.762 L316.541,102.307"/><path d="M313.352,104.128 L313.352,102.534"/><path d="M314.036,98.6631 L313.58,98.8911 L313.352,99.5741 L313.352,100.257 L313.58,100.941 L314.036,101.169 L314.491,100.941 L314.719,100.485 L314.947,99.3471 L315.174,98.8911 L315.63,98.6631 L315.857,98.6631 L316.313,98.8911 L316.54,99.5741 L316.54,100.257 L316.313,100.941 L315.857,101.169"/><path d="M310.873,93.4261 L318.134,97.5251"/><path d="M314.036,89.7821 L313.58,90.0101 L313.352,90.6931 L313.352,91.3771 L313.58,92.0601 L314.036,92.2881 L314.491,92.0601 L314.719,91.6041 L314.947,90.4661 L315.174,90.0101 L315.63,89.7821 L315.857,89.7821 L316.313,90.0101 L316.54,90.6931 L316.54,91.3771 L316.313,92.0601 L315.857,92.2881"/><path d="M314.719,88.4161 L314.719,85.6841 L314.263,85.6841 L313.808,85.9111 L313.58,86.1391 L313.352,86.5941 L313.352,87.2771 L313.58,87.7331 L314.036,88.1891 L314.719,88.4161 L315.174,88.4161 L315.857,88.1891 L316.313,87.7331 L316.541,87.2771 L316.541,86.5941 L316.313,86.1391 L315.857,85.6841"/><path d="M314.036,81.5851 L313.58,82.0401 L313.352,82.4961 L313.352,83.1791 L313.58,83.6341 L314.036,84.0891 L314.719,84.3171 L315.174,84.3171 L315.857,84.0891 L316.313,83.6341 L316.541,83.1791 L316.541,82.4961 L316.313,82.0401 L315.857,81.5851"/><path d="M310.873,76.3471 L318.134,80.4461"/><path d="M311.759,74.9811 L316.541,74.9811"/><path d="M313.352,72.7041 L315.63,74.9811"/><path d="M314.719,74.0701 L316.541,72.4761"/><path d="M314.719,71.3371 L314.719,68.6051 L314.263,68.6051 L313.808,68.8321 L313.58,69.0601 L313.352,69.5161 L313.352,70.1991 L313.58,70.6541 L314.036,71.1091 L314.719,71.3371 L315.174,71.3371 L315.857,71.1091 L316.313,70.6541 L316.541,70.1991 L316.541,69.5161 L316.313,69.0611 L315.857,68.6061"/><path d="M311.759,67.6941 L316.541,65.8721"/><path d="M311.759,64.0501 L316.541,65.8721"/><path d="M336.478,207.056 L548.988,207.056 L548.988,161.285 L336.478,161.285 L336.478,207.056 Z"/><path d="M358.162,207.056 L358.162,205.336"/><path d="M384.173,207.056 L384.173,205.336"/><path d="M404.338,207.056 L404.338,205.336"/><path d="M420.809,207.056 L420.809,205.336"/><path d="M434.75,207.056 L434.75,205.336"/><path d="M446.82,207.056 L446.82,205.336"/><path d="M457.472,207.056 L457.472,205.336"/><path d="M466.985,207.056 L466.985,203.64"/><path d="M529.633,207.056 L529.633,205.336"/><path d="M358.162,162.981 L358.162,161.286"/><path d="M384.173,162.981 L384.173,161.286"/><path d="M404.338,162.981 L404.338,161.286"/><path d="M420.809,162.981 L420.809,161.286"/><path d="M434.75,162.981 L434.75,161.286"/><path d="M446.82,162.981 L446.82,161.286"/><path d="M457.472,162.981 L457.472,161.286"/><path d="M466.985,164.701 L466.985,161.286"/><path d="M529.633,162.981 L529.633,161.286"/><path d="M463.797,212.066 L464.252,211.838 L464.935,211.155 L464.935,215.937"/><path d="M469.035,211.155 L468.351,211.382 L467.896,212.066 L467.668,213.205 L467.668,213.888 L467.896,215.026 L468.351,215.71 L469.035,215.937 L469.49,215.937 L470.174,215.71 L470.629,215.026 L470.856,213.888 L470.856,213.205 L470.629,212.066 L470.174,211.382 L469.49,211.155 L469.035,211.155"/><path d="M405.476,211.155 L403.199,211.155 L402.971,213.205 L403.199,212.976 L403.883,212.75 L404.565,212.75 L405.249,212.976 L405.704,213.433 L405.931,214.115 L405.931,214.571 L405.704,215.253 L405.249,215.71 L404.565,215.937 L403.883,215.937 L403.199,215.71 L402.971,215.482 L402.744,215.026"/><path d="M525.989,212.295 L525.989,212.066 L526.217,211.611 L526.444,211.382 L526.9,211.155 L527.81,211.155 L528.265,211.382 L528.494,211.611 L528.722,212.066 L528.722,212.521 L528.494,212.976 L528.039,213.66 L525.762,215.937 L528.949,215.937"/><path d="M531.681,211.155 L530.998,211.382 L530.543,212.066 L530.315,213.205 L530.315,213.888 L530.543,215.026 L530.998,215.71 L531.681,215.937 L532.138,215.937 L532.82,215.71 L533.275,215.026 L533.504,213.888 L533.504,213.205 L533.275,212.066 L532.82,211.382 L532.138,211.155 L531.681,211.155"/><path d="M336.478,203.818 L338.174,203.818"/><path d="M336.478,197.264 L339.894,197.264"/><path d="M336.478,190.712 L338.174,190.712"/><path d="M336.478,184.158 L339.894,184.158"/><path d="M336.478,177.605 L338.174,177.605"/><path d="M336.478,171.052 L339.894,171.052"/><path d="M336.478,164.5 L338.174,164.5"/><path d="M547.293,203.818 L548.988,203.818"/><path d="M545.572,197.264 L548.988,197.264"/><path d="M547.293,190.712 L548.988,190.712"/><path d="M545.572,184.158 L548.988,184.158"/><path d="M547.293,177.605 L548.988,177.605"/><path d="M545.572,171.052 L548.988,171.052"/><path d="M547.293,164.5 L548.988,164.5"/><path d="M329.242,201.591 L329.242,197.492"/><path d="M327.648,195.67 L327.42,195.67 L326.965,195.443 L326.737,195.214 L326.509,194.759 L326.509,193.849 L326.737,193.393 L326.965,193.166 L327.42,192.938 L327.876,192.938 L328.331,193.166 L329.014,193.621 L331.291,195.898 L331.291,192.711"/><path d="M326.509,184.386 L326.737,185.069 L327.42,185.525 L328.559,185.752 L329.242,185.752 L330.381,185.525 L331.063,185.069 L331.291,184.386 L331.291,183.931 L331.063,183.248 L330.381,182.793 L329.242,182.564 L328.559,182.564 L327.42,182.793 L326.737,183.248 L326.509,183.931 L326.509,184.386"/><path d="M327.648,172.419 L327.42,172.419 L326.965,172.191 L326.737,171.962 L326.509,171.507 L326.509,170.596 L326.737,170.14 L326.965,169.914 L327.42,169.685 L327.876,169.685 L328.331,169.914 L329.014,170.369 L331.291,172.646 L331.291,169.457"/><path d="M354.594,180.261 L366.259,180.261"/><path d="M360.616,186.814 L360.616,173.709"/><path d="M366.259,182.033 L376.607,182.033"/><path d="M371.572,188.56 L371.572,175.48"/><path d="M376.607,196.025 L385.892,196.025"/><path d="M381.364,202.578 L381.364,189.472"/><path d="M385.892,176.846 L394.319,176.846"/><path d="M390.194,183.399 L390.194,170.293"/><path d="M394.319,183.45 L402.009,183.45"/><path d="M398.24,189.978 L398.24,176.896"/><path d="M402.009,187.852 L409.12,187.852"/><path d="M405.654,194.406 L405.654,181.299"/><path d="M409.12,196.859 L415.723,196.859"/><path d="M412.485,203.414 L412.485,190.306"/><path d="M415.723,180.11 L421.872,180.11"/><path d="M418.861,186.664 L418.861,173.556"/><path d="M421.872,172.241 L427.64,172.241"/><path d="M424.806,178.795 L424.806,165.688"/><path d="M427.64,185.221 L433.08,185.221"/><path d="M430.398,191.773 L430.398,178.668"/><path d="M433.08,168.926 L438.191,168.926"/><path d="M435.661,175.455 L435.661,162.374"/><path d="M438.191,186.082 L443.049,186.082"/><path d="M440.646,192.634 L440.646,179.552"/><path d="M443.049,183.222 L447.654,183.222"/><path d="M445.378,189.775 L445.378,176.67"/><path d="M447.654,185.069 L452.032,185.069"/><path d="M449.881,191.623 L449.881,178.516"/><path d="M452.032,186.284 L456.232,186.284"/><path d="M454.157,192.837 L454.157,179.73"/><path d="M456.232,190.104 L460.229,190.104"/><path d="M458.256,196.657 L458.256,183.55"/><path d="M460.229,185.549 L464.075,185.549"/><path d="M462.178,192.103 L462.178,178.998"/><path d="M464.075,185.525 L467.769,185.525"/><path d="M465.947,192.078 L465.947,178.971"/><path d="M467.769,190.863 L471.311,190.863"/><path d="M469.541,197.417 L469.541,184.31"/><path d="M471.311,199.416 L474.727,199.416"/><path d="M473.032,205.968 L473.032,192.863"/><path d="M474.727,184.968 L478.017,184.968"/><path d="M476.372,191.496 L476.372,178.415"/><path d="M478.017,185.398 L481.18,185.398"/><path d="M479.611,191.951 L479.611,178.845"/><path d="M481.18,176.745 L484.266,176.745"/><path d="M482.748,183.298 L482.748,170.191"/><path d="M484.266,177.554 L487.226,177.554"/><path d="M485.76,184.108 L485.76,171.026"/><path d="M487.226,177.96 L490.111,177.96"/><path d="M488.694,184.511 L488.694,171.406"/><path d="M490.111,183.095 L492.92,183.095"/><path d="M491.528,189.648 L491.528,176.543"/><path d="M492.92,179.275 L495.627,179.275"/><path d="M494.285,185.828 L494.285,172.721"/><path d="M495.627,181.198 L498.258,181.198"/><path d="M496.967,187.726 L496.967,174.645"/><path d="M498.258,183.095 L500.84,183.095"/><path d="M499.549,189.648 L499.549,176.543"/><path d="M500.84,186.334 L503.318,186.334"/><path d="M502.078,192.887 L502.078,179.781"/></g><g style="stroke: #000000;fill:none;stroke-width: 0.527;stroke-linejoin:round;stroke-linecap:round;stroke-miterlimit: 10;" id="p4_s3282" idClipZone="p4_c0"><path d="M503.318,175.404 L505.772,175.404"/><path d="M504.558,181.957 L504.558,168.85"/><path d="M505.772,181.578 L508.125,181.578"/><path d="M506.963,188.13 L506.963,175.024"/><path d="M508.125,177.529 L510.427,177.529"/><path d="M509.289,184.082 L509.289,170.976"/><path d="M510.427,185.626 L512.706,185.626"/><path d="M511.566,192.178 L511.566,179.072"/><path d="M512.706,186.839 L514.906,186.839"/><path d="M513.794,193.393 L513.794,180.287"/><path d="M514.906,186.941 L517.056,186.941"/><path d="M515.969,193.468 L515.969,180.388"/><path d="M517.056,189.953 L519.158,189.953"/><path d="M518.12,196.505 L518.12,183.399"/><path d="M519.158,191.75 L521.207,191.75"/><path d="M520.195,198.302 L520.195,185.196"/><path d="M521.207,185.853 L523.23,185.853"/><path d="M522.219,192.407 L522.219,179.3"/><path d="M523.23,186.638 L525.205,186.638"/><path d="M524.218,193.191 L524.218,180.086"/><path d="M525.205,189.597 L527.127,189.597"/><path d="M526.166,196.152 L526.166,183.045"/><path d="M527.127,180.616 L529.025,180.616"/><path d="M528.089,187.17 L528.089,174.063"/><path d="M529.025,185.196 L530.872,185.196"/><path d="M529.961,191.75 L529.961,178.642"/></g><g style="stroke: #000000;fill:none;stroke-width: 0.527;stroke-linejoin:round;stroke-linecap:round;stroke-miterlimit: 10;" id="p4_s3283" idClipZone="p4_c0"><path d="M313.352,185.752 L313.352,185.296 L313.808,184.841 L317.679,183.476 L318.134,183.019 L318.134,182.564"/><path d="M313.352,182.336 L313.808,182.564 L314.491,183.019 L316.996,185.296 L317.679,185.752 L318.134,185.98"/><path d="M407.906,223.047 L407.449,222.591 L406.994,222.364 L406.311,222.364 L405.856,222.591 L405.4,223.047 L405.173,223.73 L405.173,224.185 L405.4,224.869 L405.856,225.324 L406.311,225.552 L406.994,225.552 L407.449,225.324 L407.906,224.869"/><path d="M409.5,220.769 L409.5,225.552"/><path d="M409.5,223.275 L410.182,222.591 L410.637,222.364 L411.321,222.364 L411.777,222.591 L412.004,223.275 L412.004,225.552"/><path d="M416.331,222.364 L416.331,225.552"/><path d="M416.331,223.047 L415.876,222.591 L415.42,222.364 L414.736,222.364 L414.281,222.591 L413.826,223.047 L413.597,223.73 L413.597,224.185 L413.826,224.869 L414.281,225.324 L414.736,225.552 L415.42,225.552 L415.876,225.324 L416.331,224.869"/><path d="M418.152,222.364 L418.152,225.552"/><path d="M418.152,223.275 L418.836,222.591 L419.291,222.364 L419.974,222.364 L420.43,222.591 L420.658,223.275 L420.658,225.552"/><path d="M422.479,222.364 L422.479,225.552"/><path d="M422.479,223.275 L423.162,222.591 L423.618,222.364 L424.301,222.364 L424.756,222.591 L424.984,223.275 L424.984,225.552"/><path d="M426.578,223.73 L429.31,223.73 L429.31,223.275 L429.083,222.82 L428.855,222.591 L428.399,222.364 L427.717,222.364 L427.262,222.591 L426.806,223.047 L426.578,223.73 L426.578,224.185 L426.806,224.869 L427.262,225.324 L427.717,225.552 L428.399,225.552 L428.855,225.325 L429.31,224.87"/><path d="M430.904,220.769 L430.904,225.552"/><path d="M436.142,223.73 L438.875,223.73 L438.875,223.275 L438.646,222.82 L438.42,222.591 L437.964,222.364 L437.281,222.364 L436.826,222.591 L436.37,223.047 L436.142,223.73 L436.142,224.185 L436.37,224.869 L436.826,225.324 L437.281,225.552 L437.964,225.552 L438.42,225.325 L438.875,224.87"/><path d="M440.469,222.364 L440.469,225.552"/><path d="M440.469,223.275 L441.152,222.591 L441.607,222.364 L442.291,222.364 L442.72,222.591 L442.949,223.275 L442.949,225.552"/><path d="M444.542,223.73 L447.275,223.73 L447.275,223.275 L447.047,222.82 L446.82,222.591 L446.363,222.364 L445.681,222.364 L445.225,222.591 L444.77,223.047 L444.542,223.73 L444.542,224.185 L444.77,224.869 L445.225,225.324 L445.681,225.552 L446.363,225.552 L446.82,225.325 L447.275,224.87"/><path d="M448.869,222.364 L448.869,225.552"/><path d="M448.869,223.73 L449.096,223.047 L449.552,222.591 L450.008,222.364 L450.691,222.364"/><path d="M454.335,222.364 L454.335,226.007 L454.106,226.691 L453.879,226.919 L453.423,227.146 L452.74,227.146 L452.285,226.919"/><path d="M454.335,223.047 L453.879,222.591 L453.423,222.364 L452.74,222.364 L452.285,222.591 L451.83,223.047 L451.601,223.73 L451.601,224.185 L451.83,224.869 L452.285,225.324 L452.74,225.552 L453.423,225.552 L453.879,225.324 L454.335,224.869"/><path d="M455.701,222.364 L457.066,225.552"/><path d="M458.433,222.364 L457.066,225.552 L456.611,226.462 L456.156,226.919 L455.701,227.146 L455.472,227.146"/><path d="M465.037,219.859 L464.582,220.314 L464.126,220.998 L463.67,221.908 L463.443,223.047 L463.443,223.959 L463.67,225.096 L464.126,226.007 L464.582,226.691 L465.037,227.146"/><path d="M466.631,220.769 L466.631,225.552"/><path d="M468.908,222.364 L466.631,224.64"/><path d="M467.542,223.73 L469.136,225.552"/><path d="M470.274,223.73 L473.007,223.73 L473.007,223.275 L472.779,222.82 L472.551,222.591 L472.096,222.364 L471.413,222.364 L470.957,222.591 L470.502,223.047 L470.274,223.73 L470.274,224.185 L470.502,224.869 L470.957,225.324 L471.413,225.552 L472.096,225.552 L472.551,225.325 L473.007,224.87"/><path d="M473.918,220.769 L475.74,225.552"/><path d="M477.561,220.769 L475.74,225.552"/><path d="M478.472,219.859 L478.927,220.314 L479.383,220.998 L479.838,221.908 L480.066,223.047 L480.066,223.959 L479.838,225.096 L479.383,226.007 L478.927,226.691 L478.472,227.146"/><path d="M336.478,184.158 L339.894,184.158"/><path d="M343.31,184.158 L346.725,184.158"/><path d="M350.141,184.158 L353.557,184.158"/><path d="M356.973,184.158 L360.388,184.158"/><path d="M363.829,184.158 L367.245,184.158"/><path d="M370.661,184.158 L374.076,184.158"/><path d="M377.493,184.158 L380.908,184.158"/><path d="M384.324,184.158 L387.74,184.158"/><path d="M391.156,184.158 L394.571,184.158"/><path d="M397.987,184.158 L401.402,184.158"/><path d="M404.844,184.158 L408.26,184.158"/><path d="M411.676,184.158 L415.092,184.158"/><path d="M418.507,184.158 L421.923,184.158"/><path d="M425.338,184.158 L428.754,184.158"/><path d="M432.17,184.158 L435.586,184.158"/><path d="M439.002,184.158 L442.418,184.158"/><path d="M445.858,184.158 L449.273,184.158"/></g><g style="stroke: #000000;fill:none;stroke-width: 0.527;stroke-linejoin:round;stroke-linecap:round;stroke-miterlimit: 10;" id="p4_s3284" idClipZone="p4_c0"><path d="M452.689,184.158 L456.105,184.158"/><path d="M459.521,184.158 L462.937,184.158"/><path d="M466.353,184.158 L469.768,184.158"/><path d="M473.184,184.158 L476.599,184.158"/><path d="M480.015,184.158 L483.431,184.158"/><path d="M486.873,184.158 L490.288,184.158"/><path d="M493.704,184.158 L497.119,184.158"/><path d="M500.535,184.158 L503.951,184.158"/><path d="M507.367,184.158 L510.782,184.158"/><path d="M514.199,184.158 L517.614,184.158"/><path d="M521.029,184.158 L524.445,184.158"/><path d="M527.887,184.158 L531.302,184.158"/><path d="M534.719,184.158 L538.134,184.158"/><path d="M541.55,184.158 L544.966,184.158"/><path d="M548.381,184.158 L548.988,184.158"/></g></svg>
